<svg version="1.1" viewBox="0.0 0.0 739.1994750656168 220.8005249343832" fill="none" stroke="none" stroke-linecap="square" stroke-miterlimit="10" xmlns:xlink="http://www.w3.org/1999/xlink" xmlns="http://www.w3.org/2000/svg"><clipPath id="g32aeb4426c2_0_32.0"><path d="m0 0l739.19946 0l0 220.80052l-739.19946 0l0 -220.80052z" clip-rule="nonzero"/></clipPath><g clip-path="url(#g32aeb4426c2_0_32.0)"><path fill="#ffffff" d="m0 0l739.19946 0l0 220.80052l-739.19946 0z" fill-rule="evenodd"/><path fill="#000000" fill-opacity="0.0" d="m391.00262 80.53018l341.19684 0l0 48.472443l-341.19684 0z" fill-rule="evenodd"/><path fill="#000000" d="m408.75336 96.67956q1.375 0 2.46875 0.28125q1.09375 0.265625 1.859375 0.796875q0.78125 0.515625 1.203125 1.296875q0.421875 0.765625 0.421875 1.78125q0 1.796875 -1.171875 2.78125q-1.15625 0.984375 -3.171875 1.296875l4.953125 6.078125q0.3125 0.40625 0.734375 0.703125q0.4375 0.296875 0.8125 0.34375l0.53125 0.078125l0 0.453125l-3.859375 0l-5.71875 -7.390625l-1.34375 0.046875l0 4.84375q0 0.84375 0.1875 1.28125q0.203125 0.421875 0.96875 0.625q0.1875 0.046875 0.4375 0.078125q0.265625 0.015625 0.578125 0.0625l0 0.453125l-6.65625 0l0 -0.453125q0.1875 -0.03125 0.359375 -0.03125q0.171875 -0.015625 0.34375 -0.0625q0.421875 -0.078125 0.6875 -0.21875q0.265625 -0.140625 0.40625 -0.359375q0.15625 -0.21875 0.203125 -0.53125q0.046875 -0.3125 0.046875 -0.75l0 -10.984375q0 -0.53125 -0.0625 -0.859375q-0.0625 -0.34375 -0.234375 -0.5625q-0.171875 -0.21875 -0.484375 -0.328125q-0.296875 -0.125 -0.828125 -0.21875l-0.4375 -0.078125l0 -0.453125l6.765625 0zm-2.28125 7.65625q0.3125 0 0.671875 0q0.359375 0 0.625 -0.015625q1.234375 -0.078125 2.0625 -0.359375q0.828125 -0.296875 1.328125 -0.75q0.5 -0.453125 0.71875 -1.046875q0.21875 -0.609375 0.21875 -1.328125q0 -3.265625 -4.234375 -3.265625q-0.234375 0 -0.46875 0.015625q-0.21875 0.015625 -0.453125 0.078125q-0.46875 0.140625 -0.46875 0.71875l0 5.953125zm14.83606 -2.5625l0 7.875q0 0.71875 0.5 1.25q0.515625 0.515625 1.296875 0.515625q0.4375 0 0.9375 -0.15625q0.5 -0.171875 0.921875 -0.484375q0.28125 -0.25 0.4375 -0.5q0.171875 -0.25 0.171875 -0.875l0 -5.78125q0 -0.765625 -0.28125 -1.09375q-0.28125 -0.34375 -1.171875 -0.34375l-0.3125 0l0 -0.40625l3.796875 0l0 8.296875q0 0.625 0.15625 0.921875q0.171875 0.28125 0.75 0.359375q0.125 0.015625 0.265625 0.015625q0.140625 0 0.3125 0l0 0.34375q-0.65625 0.1875 -1.015625 0.296875q-0.359375 0.109375 -0.65625 0.21875q-0.296875 0.109375 -0.65625 0.25q-0.359375 0.125 -1.015625 0.3125l-0.046875 -0.046875l0 -2.0q-0.375 0.390625 -0.734375 0.75q-0.34375 0.359375 -0.703125 0.625q-0.4375 0.328125 -0.984375 0.5q-0.53125 0.1875 -1.125 0.1875q-1.328125 0 -2.09375 -0.859375q-0.765625 -0.859375 -0.765625 -2.1875l0 -6.1875q0 -0.625 -0.203125 -0.953125q-0.203125 -0.34375 -0.859375 -0.46875q-0.234375 -0.046875 -0.421875 -0.046875l0 -0.328125l3.5 0zm12.6562195 -5.546875l0 14.40625q0 0.78125 0.25 1.15625q0.265625 0.375 1.109375 0.421875l0.4375 0l0 0.359375l-5.671875 0l0 -0.359375l0.390625 -0.046875q0.890625 -0.125 1.171875 -0.453125q0.296875 -0.34375 0.296875 -1.15625l0 -11.46875q0 -0.3125 -0.015625 -0.59375q-0.015625 -0.296875 -0.109375 -0.484375q-0.09375 -0.203125 -0.296875 -0.3125q-0.203125 -0.125 -0.59375 -0.125q-0.171875 0 -0.4375 0.015625q-0.265625 0.015625 -0.453125 0.03125l0 -0.390625q1.46875 -0.359375 2.3125 -0.609375q0.859375 -0.25 1.484375 -0.4375l0.125 0.046875zm4.546997 9.703125q0.125 1.671875 0.53125 2.703125q0.40625 1.015625 0.96875 1.578125q0.5625 0.5625 1.1875 0.75q0.625 0.1875 1.15625 0.1875q1.125 0 1.96875 -0.5625q0.859375 -0.578125 1.734375 -1.953125l0.375 0.171875q-0.765625 1.96875 -2.0625 2.984375q-1.296875 1.015625 -3.015625 1.015625q-2.125 0 -3.3125 -1.4375q-1.1875 -1.453125 -1.1875 -3.9375q0 -1.3125 0.375 -2.390625q0.375 -1.078125 1.03125 -1.859375q0.65625 -0.78125 1.5625 -1.21875q0.921875 -0.4375 2.03125 -0.4375q0.640625 0 1.28125 0.1875q0.640625 0.171875 1.171875 0.578125q0.546875 0.390625 0.9375 1.015625q0.40625 0.625 0.5625 1.515625q0.046875 0.234375 0.09375 0.5625q0.0625 0.328125 0.078125 0.546875l-7.46875 0zm5.015625 -0.78125q-0.140625 -1.359375 -0.65625 -2.046875q-0.515625 -0.703125 -1.671875 -0.703125q-0.5 0 -0.90625 0.125q-0.40625 0.109375 -0.734375 0.421875q-0.328125 0.3125 -0.5625 0.859375q-0.234375 0.53125 -0.40625 1.34375l4.9375 0zm7.9997253 -2.21875q0 0.515625 -0.40625 0.90625q-0.390625 0.375 -0.9375 0.375q-0.546875 0 -0.9375 -0.359375q-0.390625 -0.375 -0.390625 -0.921875q0 -0.5625 0.390625 -0.96875q0.390625 -0.40625 0.9375 -0.40625q0.546875 0 0.9375 0.40625q0.40625 0.40625 0.40625 0.96875zm0 8.609375q0 0.53125 -0.40625 0.921875q-0.390625 0.375 -0.9375 0.375q-0.546875 0 -0.9375 -0.375q-0.390625 -0.375 -0.390625 -0.921875q0 -0.546875 0.390625 -0.953125q0.390625 -0.421875 0.9375 -0.421875q0.546875 0 0.9375 0.421875q0.40625 0.40625 0.40625 0.953125z" fill-rule="nonzero"/><path fill="#8e7cc3" d="m471.37057 96.89831l0 0.390625q-0.1875 0.015625 -0.34375 0.0625q-0.140625 0.03125 -0.28125 0.046875q-0.625 0.125 -0.875 0.515625q-0.25 0.375 -0.4375 1.078125q-0.390625 1.34375 -0.796875 2.8125q-0.390625 1.453125 -0.78125 2.84375q-0.375 1.390625 -0.734375 2.65625q-0.359375 1.25 -0.671875 2.1875q-0.265625 0.84375 -0.640625 1.40625q-0.359375 0.546875 -0.65625 0.875q-1.125 1.234375 -2.921875 1.234375q-1.25 0 -2.015625 -0.578125q-0.765625 -0.578125 -0.765625 -1.546875q0 -0.5625 0.296875 -0.921875q0.296875 -0.359375 0.78125 -0.359375q0.4375 0 0.796875 0.3125q0.375 0.296875 0.375 0.78125q0 0.140625 -0.015625 0.328125q0 0.171875 0 0.4375q0.046875 0.53125 0.296875 0.671875q0.25 0.125 0.515625 0.125q0.84375 0 1.125 -1.078125l3.140625 -11.109375q0.25 -0.8125 0.296875 -1.1875q0.0625 -0.375 0.0625 -0.59375q0 -0.328125 -0.140625 -0.5q-0.125 -0.1875 -0.546875 -0.3125q-0.453125 -0.125 -1.15625 -0.1875l0 -0.390625l6.09375 0zm1.4851074 14.921875q0 1.09375 -0.796875 2.046875q-0.78125 0.953125 -2.3125 1.796875l-0.21875 -0.40625q0.9375 -0.625 1.359375 -1.125q0.4375 -0.5 0.4375 -0.984375q0 -0.296875 -0.171875 -0.484375q-0.15625 -0.1875 -0.375 -0.359375q-0.203125 -0.1875 -0.375 -0.40625q-0.15625 -0.234375 -0.15625 -0.59375q0 -0.515625 0.328125 -0.828125q0.34375 -0.328125 0.890625 -0.328125q0.609375 0 1.0 0.484375q0.390625 0.46875 0.390625 1.1875zm25.546844 -9.59375q0 2.015625 -0.828125 3.921875q-0.828125 1.890625 -2.21875 3.375q-1.375 1.484375 -3.203125 2.421875q-1.8125 0.9375 -3.828125 1.015625l-1.296875 1.359375q0.15625 -0.015625 0.296875 -0.015625q0.15625 0 0.328125 0q0.328125 0 0.953125 0.125q0.625 0.125 1.390625 0.296875q0.859375 0.203125 1.65625 0.390625q0.8125 0.1875 1.625 0.1875q1.328125 0 2.28125 -0.46875q0.96875 -0.46875 1.734375 -1.359375l0.359375 0.265625q-0.546875 0.84375 -1.28125 1.4375q-0.734375 0.609375 -1.515625 0.984375q-0.78125 0.390625 -1.578125 0.578125q-0.78125 0.203125 -1.453125 0.203125q-0.5625 0 -1.5 -0.15625q-0.921875 -0.15625 -1.859375 -0.421875q-0.796875 -0.21875 -1.359375 -0.359375q-0.5625 -0.125 -1.109375 -0.125q-0.703125 0 -1.453125 0.203125q-0.734375 0.203125 -1.265625 0.546875l-0.234375 -0.359375q1.140625 -0.78125 2.140625 -1.640625q1.015625 -0.84375 2.09375 -1.78125q-0.421875 -0.09375 -0.921875 -0.25q-0.484375 -0.15625 -0.890625 -0.421875q-1.15625 -0.734375 -1.78125 -1.984375q-0.625 -1.265625 -0.625 -2.953125q0 -1.84375 0.796875 -3.71875q0.796875 -1.890625 2.390625 -3.578125q1.609375 -1.671875 3.34375 -2.515625q1.75 -0.84375 3.4375 -0.84375q1.1875 0 2.171875 0.453125q0.984375 0.4375 1.6875 1.203125q0.71875 0.765625 1.109375 1.796875q0.40625 1.015625 0.40625 2.1875zm-9.71875 9.9375q3.015625 0 5.109375 -3.84375q2.078125 -3.84375 2.078125 -7.265625q0 -1.734375 -0.828125 -2.703125q-0.828125 -0.96875 -2.28125 -0.96875q-1.546875 0 -2.8125 0.96875q-1.25 0.953125 -2.328125 2.859375q-1.078125 1.875 -1.5625 3.71875q-0.484375 1.828125 -0.484375 3.4375q0 1.796875 0.828125 2.796875q0.828125 1.0 2.28125 1.0zm13.499817 -0.34375q0 1.09375 -0.796875 2.046875q-0.78125 0.953125 -2.3125 1.796875l-0.21875 -0.40625q0.9375 -0.625 1.359375 -1.125q0.4375 -0.5 0.4375 -0.984375q0 -0.296875 -0.171875 -0.484375q-0.15625 -0.1875 -0.375 -0.359375q-0.203125 -0.1875 -0.375 -0.40625q-0.15625 -0.234375 -0.15625 -0.59375q0 -0.515625 0.328125 -0.828125q0.34375 -0.328125 0.890625 -0.328125q0.609375 0 1.0 0.484375q0.390625 0.46875 0.390625 1.1875zm18.828064 -14.921875l0 0.390625q-1.15625 0.109375 -1.671875 0.515625q-0.515625 0.40625 -0.765625 1.25l-1.21875 4.515625l0.140625 0.03125q1.28125 -0.890625 2.375 -1.671875q1.109375 -0.78125 1.96875 -1.40625q0.765625 -0.546875 1.28125 -1.03125q0.53125 -0.484375 0.765625 -0.75q0.53125 -0.578125 0.53125 -0.90625q0 -0.296875 -0.25 -0.359375q-0.234375 -0.078125 -0.5 -0.125q-0.1875 -0.015625 -0.328125 -0.03125q-0.125 -0.015625 -0.390625 -0.03125l0 -0.390625l5.328125 0l0 0.390625q-0.53125 0.109375 -1.015625 0.375q-0.46875 0.25 -0.78125 0.484375l-7.203125 5.421875l4.296875 7.484375q0.328125 0.625 0.625 0.78125q0.3125 0.15625 0.640625 0.234375q0.265625 0.046875 0.5 0.078125q0.25 0.015625 0.4375 0.03125l0 0.390625l-6.59375 0l0 -0.390625q0.40625 -0.046875 0.609375 -0.046875q0.203125 -0.015625 0.390625 -0.0625q0.484375 -0.09375 0.640625 -0.21875q0.15625 -0.125 0.15625 -0.359375q0 -0.34375 -0.25 -0.9375q-0.234375 -0.59375 -0.640625 -1.296875l-2.78125 -4.796875l-0.1875 -0.03125l-1.4375 5.265625q-0.15625 0.515625 -0.25 0.765625q-0.09375 0.234375 -0.09375 0.640625q0 0.40625 0.109375 0.625q0.125 0.203125 0.65625 0.3125q0.390625 0.078125 0.96875 0.140625l0 0.390625l-5.9530945 0l0 -0.390625q0.234375 -0.015625 0.421875 -0.046875q0.203125 -0.046875 0.359375 -0.09375q0.26559448 -0.0625 0.43746948 -0.1875q0.1875 -0.125 0.3125 -0.328125q0.140625 -0.203125 0.25 -0.515625q0.109375 -0.3125 0.234375 -0.734375l2.859375 -10.28125q0.234375 -0.859375 0.265625 -1.15625q0.046875 -0.3125 0.046875 -0.5q0 -0.328125 -0.125 -0.515625q-0.125 -0.203125 -0.484375 -0.328125q-0.21875 -0.0625 -0.53125 -0.109375q-0.3125 -0.046875 -0.71875 -0.09375l0 -0.390625l6.5625 0zm22.14856 7.03125q0 0.484375 -0.328125 0.796875q-0.328125 0.3125 -0.828125 0.3125q-0.9375 0 -0.9375 -0.921875q0 -0.328125 0.171875 -0.640625q0.1875 -0.3125 0.1875 -0.484375q0 -0.5 -0.9375 -0.5q-0.90625 0 -1.765625 0.5625q-0.84375 0.546875 -1.515625 1.46875q-0.671875 0.921875 -1.078125 2.140625q-0.390625 1.203125 -0.390625 2.515625q0 1.328125 0.578125 2.0625q0.578125 0.734375 1.578125 0.734375q0.890625 0 1.6875 -0.4375q0.796875 -0.453125 1.78125 -1.515625l0.375 0.25q-1.09375 1.390625 -2.15625 1.984375q-1.0625 0.578125 -2.40625 0.578125q-1.671875 0 -2.59375 -0.9375q-0.90625 -0.953125 -0.90625 -2.6875q0 -1.375 0.578125 -2.671875q0.578125 -1.3125 1.53125 -2.3125q0.96875 -1.015625 2.21875 -1.625q1.265625 -0.609375 2.609375 -0.609375q1.109375 0 1.828125 0.546875q0.71875 0.546875 0.71875 1.390625zm11.687256 1.4375q0 1.171875 -0.5625 2.484375q-0.5625 1.3125 -1.53125 2.421875q-0.953125 1.09375 -2.25 1.828125q-1.28125 0.734375 -2.71875 0.734375q-1.65625 0 -2.59375 -0.890625q-0.9375 -0.90625 -0.9375 -2.5q0 -1.296875 0.59375 -2.625q0.59375 -1.328125 1.578125 -2.40625q0.984375 -1.078125 2.28125 -1.75q1.3125 -0.671875 2.75 -0.671875q1.515625 0 2.453125 0.9375q0.9375 0.921875 0.9375 2.4375zm-6.703125 6.96875q1.03125 0 1.875 -0.796875q0.859375 -0.796875 1.484375 -1.953125q0.625 -1.171875 0.96875 -2.484375q0.359375 -1.328125 0.359375 -2.359375q0 -1.0 -0.46875 -1.625q-0.453125 -0.625 -1.21875 -0.625q-0.90625 0 -1.546875 0.5q-0.625 0.5 -1.25 1.328125q-0.46875 0.59375 -0.84375 1.3125q-0.359375 0.71875 -0.640625 1.484375q-0.28125 0.765625 -0.4375 1.546875q-0.15625 0.765625 -0.15625 1.4375q0 1.03125 0.515625 1.640625q0.53125 0.59375 1.359375 0.59375zm12.531189 -10.296875q-0.75 2.953125 -1.1875 4.671875q-0.421875 1.703125 -0.65625 2.609375q-0.21875 0.890625 -0.296875 1.203125q-0.0625 0.296875 -0.0625 0.390625q0 0.34375 0.140625 0.5q0.140625 0.140625 0.34375 0.140625q0.921875 0 2.4375 -2.078125q0.796875 -1.109375 1.296875 -1.953125q0.5 -0.859375 0.875 -1.65625q0.375 -0.8125 0.6875 -1.671875q0.3125 -0.859375 0.75 -2.0l1.765625 0l-1.671875 6.359375q-0.046875 0.171875 -0.15625 0.5625q-0.109375 0.375 -0.234375 0.8125q-0.125 0.4375 -0.203125 0.8125q-0.078125 0.359375 -0.078125 0.515625q0 0.15625 0.078125 0.28125q0.078125 0.125 0.203125 0.125q0.1875 0 0.421875 -0.171875q0.25 -0.1875 0.515625 -0.46875q0.265625 -0.28125 0.53125 -0.609375q0.265625 -0.34375 0.5 -0.65625l0.34375 0.21875q-0.625 0.890625 -1.078125 1.453125q-0.4375 0.546875 -0.796875 0.84375q-0.359375 0.296875 -0.703125 0.40625q-0.328125 0.109375 -0.734375 0.109375q-1.15625 0 -1.15625 -1.171875q0 -0.25 0.09375 -0.71875q0.09375 -0.46875 0.234375 -1.046875q0.15625 -0.59375 0.328125 -1.296875q0.1875 -0.71875 0.375 -1.4375l-0.078125 0q-0.8125 1.390625 -1.53125 2.46875q-0.703125 1.0625 -1.375 1.78125q-0.671875 0.71875 -1.34375 1.09375q-0.671875 0.375 -1.390625 0.375q-0.59375 0 -0.921875 -0.3125q-0.3125 -0.3125 -0.3125 -1.0625q0 -0.375 0.109375 -0.96875q0.125 -0.609375 0.21875 -0.921875l1.296875 -4.875q0.140625 -0.53125 0.15625 -0.734375q0.03125 -0.203125 0.03125 -0.34375q0 -0.40625 -0.296875 -0.515625q-0.28125 -0.125 -1.140625 -0.125l0 -0.34375q0.765625 -0.09375 1.734375 -0.265625q0.984375 -0.171875 1.859375 -0.375l0.078125 0.046875zm12.046875 0l-1.53125 5.015625l0.046875 0.046875q0.9375 -1.46875 1.65625 -2.40625q0.71875 -0.9375 1.34375 -1.515625q0.765625 -0.734375 1.375 -0.953125q0.609375 -0.234375 1.078125 -0.234375q0.6875 0 1.109375 0.40625q0.421875 0.40625 0.421875 1.09375q0 0.171875 -0.046875 0.390625q-0.03125 0.21875 -0.0625 0.453125q-0.03125 0.21875 -0.078125 0.421875q-0.046875 0.203125 -0.078125 0.296875q-0.546875 1.921875 -0.875 3.109375q-0.328125 1.171875 -0.5 1.828125q-0.15625 0.65625 -0.21875 0.90625q-0.0625 0.25 -0.0625 0.28125q0 0.484375 0.40625 0.484375q0.359375 0 0.875 -0.59375q0.515625 -0.59375 1.078125 -1.3125l0.328125 0.3125q-0.640625 0.9375 -1.15625 1.484375q-0.5 0.53125 -0.90625 0.8125q-0.390625 0.28125 -0.703125 0.34375q-0.3125 0.078125 -0.59375 0.078125q-1.125 0 -1.125 -1.234375q0 -0.25 0.046875 -0.546875q0.046875 -0.3125 0.125 -0.59375q0.5 -1.875 0.8125 -3.046875q0.3125 -1.1875 0.484375 -1.875q0.1875 -0.703125 0.234375 -1.015625q0.0625 -0.328125 0.0625 -0.515625q0 -0.75 -0.5625 -0.75q-1.078125 0 -2.640625 2.109375q-0.796875 1.078125 -1.265625 1.859375q-0.46875 0.78125 -0.796875 1.546875q-0.3125 0.75 -0.59375 1.65625q-0.28125 0.890625 -0.65625 2.1875l-1.796875 0l1.890625 -6.953125q0.015625 -0.0625 0.09375 -0.3125q0.078125 -0.25 0.15625 -0.546875q0.078125 -0.296875 0.140625 -0.59375q0.0625 -0.3125 0.0625 -0.453125q0 -0.359375 -0.40625 -0.453125q-0.390625 -0.09375 -1.125 -0.140625l0 -0.390625q0.890625 -0.171875 1.4375 -0.265625q0.546875 -0.109375 0.953125 -0.1875q0.40625 -0.078125 0.734375 -0.125q0.328125 -0.0625 0.765625 -0.15625l0.0625 0.046875zm12.843689 -2.578125l-0.796875 2.84375l1.953125 0l-0.125 0.765625l-2.015625 0q-0.59375 2.28125 -0.96875 3.671875q-0.375 1.390625 -0.59375 2.203125q-0.21875 0.8125 -0.296875 1.171875q-0.078125 0.34375 -0.140625 0.515625q0 0.015625 -0.03125 0.125q-0.015625 0.109375 -0.046875 0.21875q-0.015625 0.109375 -0.046875 0.21875q-0.015625 0.109375 -0.015625 0.125q0 0.1875 0.125 0.265625q0.125 0.078125 0.234375 0.078125q0.203125 0 0.4375 -0.1875q0.234375 -0.203125 0.5 -0.484375q0.265625 -0.296875 0.515625 -0.609375q0.25 -0.328125 0.46875 -0.625l0.359375 0.171875q-1.0 1.578125 -1.78125 2.25q-0.78125 0.65625 -1.640625 0.65625q-0.421875 0 -0.796875 -0.234375q-0.359375 -0.21875 -0.359375 -0.734375q0 -0.15625 0.0625 -0.359375q0.0625 -0.203125 0.109375 -0.421875q0.546875 -2.0 1.0625 -4.0q0.515625 -2.0 1.046875 -4.015625l-1.828125 0l0.09375 -0.390625q0.796875 -0.40625 1.3125 -0.6875q0.53125 -0.296875 0.953125 -0.65625q0.25 -0.234375 0.421875 -0.375q0.171875 -0.15625 0.34375 -0.328125q0.1875 -0.1875 0.40625 -0.4375q0.21875 -0.265625 0.59375 -0.734375l0.484375 0zm15.937622 3.828125l0.234375 -1.0625l0.078125 -0.078125l1.453125 -0.15625l0.171875 0.0625l-1.21875 4.65625q-1.0625 4.03125 -1.0625 4.5625q0 0.3125 0.34375 0.3125q0.265625 0 0.84375 -0.578125l1.078125 -1.078125l0.28125 0.234375q-0.640625 0.796875 -1.109375 1.3125q-0.453125 0.515625 -0.828125 0.8125q-0.359375 0.28125 -0.6875 0.390625q-0.328125 0.125 -0.703125 0.125q-0.515625 0 -0.75 -0.234375q-0.21875 -0.21875 -0.21875 -0.796875q0 -0.109375 0.015625 -0.25q0.015625 -0.15625 0.0625 -0.421875q0.046875 -0.28125 0.140625 -0.703125q0.09375 -0.4375 0.28125 -1.171875l-0.046875 -0.046875q-0.734375 1.09375 -1.359375 1.796875q-0.609375 0.6875 -1.15625 1.109375q-0.546875 0.40625 -1.09375 0.578125q-0.53125 0.171875 -1.109375 0.171875q-1.171875 0 -1.8125 -0.703125q-0.640625 -0.71875 -0.640625 -2.015625q0 -1.453125 0.640625 -2.90625q0.65625 -1.453125 1.65625 -2.609375q1.015625 -1.171875 2.21875 -1.890625q1.203125 -0.71875 2.328125 -0.71875q0.765625 0 1.265625 0.34375q0.515625 0.328125 0.65625 0.953125l0.046875 0zm-5.375 8.375q0.546875 0 1.015625 -0.234375q0.46875 -0.25 0.875 -0.640625q0.40625 -0.40625 0.78125 -0.9375q0.375 -0.546875 0.734375 -1.140625q0.6875 -1.203125 1.09375 -2.375q0.421875 -1.1875 0.421875 -2.265625q0 -0.6875 -0.375 -1.125q-0.375 -0.4375 -1.015625 -0.4375q-0.734375 0 -1.375 0.421875q-0.625 0.421875 -1.1875 1.09375q-0.546875 0.65625 -0.984375 1.484375q-0.4375 0.828125 -0.75 1.640625q-0.3125 0.8125 -0.484375 1.546875q-0.171875 0.734375 -0.171875 1.1875q0 0.90625 0.421875 1.34375q0.421875 0.4375 1.0 0.4375zm16.937439 -9.703125l-0.484375 3.34375l-0.375 0q-0.1875 -1.453125 -0.734375 -2.109375q-0.546875 -0.65625 -1.5 -0.65625q-1.3125 0 -1.3125 1.34375q0 0.53125 0.375 1.171875q0.390625 0.625 1.078125 1.515625q0.703125 0.890625 1.078125 1.640625q0.390625 0.734375 0.390625 1.53125q0 0.671875 -0.25 1.234375q-0.25 0.5625 -0.71875 0.984375q-0.453125 0.421875 -1.078125 0.640625q-0.625 0.234375 -1.359375 0.234375q-0.40625 0 -0.734375 -0.078125q-0.328125 -0.0625 -0.625 -0.15625q-0.28125 -0.078125 -0.5625 -0.140625q-0.28125 -0.078125 -0.625 -0.078125q-0.328125 0 -0.578125 0.5l-0.375 0l0.46875 -3.8125l0.390625 0q0.28125 1.71875 0.875 2.5q0.59375 0.765625 1.625 0.765625q0.765625 0 1.234375 -0.53125q0.484375 -0.53125 0.484375 -1.375q0 -0.546875 -0.375 -1.21875q-0.359375 -0.671875 -1.0625 -1.609375q-0.6875 -0.953125 -1.0625 -1.640625q-0.359375 -0.6875 -0.359375 -1.359375q0 -1.21875 0.78125 -1.90625q0.78125 -0.703125 2.109375 -0.703125q0.421875 0 0.71875 0.0625q0.3125 0.046875 0.5625 0.140625q0.25 0.078125 0.46875 0.140625q0.234375 0.0625 0.53125 0.0625q0.234375 0 0.375 -0.078125q0.140625 -0.09375 0.296875 -0.359375l0.328125 0zm16.445374 -5.46875l-3.546875 12.859375q-0.0625 0.1875 -0.15625 0.5q-0.09375 0.296875 -0.1875 0.625q-0.078125 0.3125 -0.140625 0.578125q-0.046875 0.265625 -0.046875 0.390625q0 0.453125 0.4375 0.609375q0.453125 0.15625 1.625 0.15625l0 0.359375l-6.703125 0l0 -0.34375q0.390625 -0.015625 0.765625 -0.078125q0.390625 -0.0625 0.78125 -0.15625q0.375 -0.09375 0.6875 -0.3125q0.3125 -0.21875 0.453125 -0.734375l3.296875 -11.6875q0.109375 -0.421875 0.140625 -0.625q0.046875 -0.203125 0.046875 -0.296875q0 -0.328125 -0.234375 -0.546875q-0.21875 -0.21875 -0.703125 -0.21875q-0.125 0 -0.234375 0q-0.09375 0 -0.25 0q-0.140625 0 -0.34375 0.015625q-0.203125 0.015625 -0.515625 0.03125l0 -0.359375q1.21875 -0.1875 2.40625 -0.46875q1.1875 -0.28125 2.234375 -0.4375l0.1875 0.140625zm11.999939 0l-3.546875 12.859375q-0.0625 0.1875 -0.15625 0.5q-0.09375 0.296875 -0.1875 0.625q-0.078125 0.3125 -0.140625 0.578125q-0.046875 0.265625 -0.046875 0.390625q0 0.453125 0.4375 0.609375q0.453125 0.15625 1.625 0.15625l0 0.359375l-6.703125 0l0 -0.34375q0.390625 -0.015625 0.765625 -0.078125q0.390625 -0.0625 0.78125 -0.15625q0.375 -0.09375 0.6875 -0.3125q0.3125 -0.21875 0.453125 -0.734375l3.296875 -11.6875q0.109375 -0.421875 0.140625 -0.625q0.046875 -0.203125 0.046875 -0.296875q0 -0.328125 -0.234375 -0.546875q-0.21875 -0.21875 -0.703125 -0.21875q-0.125 0 -0.234375 0q-0.09375 0 -0.25 0q-0.140625 0 -0.34375 0.015625q-0.203125 0.015625 -0.515625 0.03125l0 -0.359375q1.21875 -0.1875 2.40625 -0.46875q1.1875 -0.28125 2.234375 -0.4375l0.1875 0.140625zm5.34375 15.328125q0 1.09375 -0.796875 2.046875q-0.78125 0.953125 -2.3125 1.796875l-0.21875 -0.40625q0.9375 -0.625 1.359375 -1.125q0.4375 -0.5 0.4375 -0.984375q0 -0.296875 -0.171875 -0.484375q-0.15625 -0.1875 -0.375 -0.359375q-0.203125 -0.1875 -0.375 -0.40625q-0.15625 -0.234375 -0.15625 -0.59375q0 -0.515625 0.328125 -0.828125q0.34375 -0.328125 0.890625 -0.328125q0.609375 0 1.0 0.484375q0.390625 0.46875 0.390625 1.1875zm18.656189 -15.328125l-3.546875 12.859375q-0.0625 0.1875 -0.15625 0.5q-0.09375 0.296875 -0.1875 0.625q-0.078125 0.3125 -0.140625 0.578125q-0.046875 0.265625 -0.046875 0.390625q0 0.453125 0.4375 0.609375q0.453125 0.15625 1.625 0.15625l0 0.359375l-6.703125 0l0 -0.34375q0.390625 -0.015625 0.765625 -0.078125q0.390625 -0.0625 0.78125 -0.15625q0.375 -0.09375 0.6875 -0.3125q0.3125 -0.21875 0.453125 -0.734375l3.296875 -11.6875q0.109375 -0.421875 0.140625 -0.625q0.046875 -0.203125 0.046875 -0.296875q0 -0.328125 -0.234375 -0.546875q-0.21875 -0.21875 -0.703125 -0.21875q-0.125 0 -0.234375 0q-0.09375 0 -0.25 0q-0.140625 0 -0.34375 0.015625q-0.203125 0.015625 -0.515625 0.03125l0 -0.359375q1.21875 -0.1875 2.40625 -0.46875q1.1875 -0.28125 2.234375 -0.4375l0.1875 0.140625zm12.953125 3.9375q0 0.59375 -0.1875 1.234375q-0.171875 0.640625 -0.578125 1.1875q-0.546875 0.75 -1.265625 1.546875q-0.703125 0.78125 -1.6875 1.765625l-4.46875 4.46875l0 0.109375l4.59375 0q0.484375 0 0.890625 -0.09375q0.40625 -0.09375 0.765625 -0.359375q0.1875 -0.140625 0.359375 -0.421875q0.171875 -0.296875 0.328125 -0.640625l0.421875 0.171875l-1.203125 3.171875l-8.53125 0l0 -0.40625l5.046875 -5.375q0.796875 -0.84375 1.40625 -1.609375q0.609375 -0.765625 1.0625 -1.46875q0.453125 -0.6875 0.71875 -1.265625q0.265625 -0.578125 0.265625 -1.375q0 -1.296875 -0.84375 -2.125q-0.828125 -0.84375 -2.125 -0.84375q-1.078125 0 -1.90625 0.546875q-0.8125 0.53125 -1.484375 1.703125l-0.5 -0.171875q0.171875 -0.40625 0.34375 -0.8125q0.1875 -0.421875 0.421875 -0.765625q0.765625 -1.125 1.921875 -1.6875q1.15625 -0.5625 2.296875 -0.5625q0.84375 0 1.5625 0.3125q0.71875 0.3125 1.25 0.859375q0.53125 0.546875 0.828125 1.296875q0.296875 0.734375 0.296875 1.609375zm4.390564 11.390625q0 1.09375 -0.796875 2.046875q-0.78125 0.953125 -2.3125 1.796875l-0.21875 -0.40625q0.9375 -0.625 1.359375 -1.125q0.4375 -0.5 0.4375 -0.984375q0 -0.296875 -0.171875 -0.484375q-0.15625 -0.1875 -0.375 -0.359375q-0.203125 -0.1875 -0.375 -0.40625q-0.15625 -0.234375 -0.15625 -0.59375q0 -0.515625 0.328125 -0.828125q0.34375 -0.328125 0.890625 -0.328125q0.609375 0 1.0 0.484375q0.390625 0.46875 0.390625 1.1875zm18.65625 -15.328125l-3.546875 12.859375q-0.0625 0.1875 -0.15625 0.5q-0.09375 0.296875 -0.1875 0.625q-0.078125 0.3125 -0.140625 0.578125q-0.046875 0.265625 -0.046875 0.390625q0 0.453125 0.4375 0.609375q0.453125 0.15625 1.625 0.15625l0 0.359375l-6.703125 0l0 -0.34375q0.390625 -0.015625 0.765625 -0.078125q0.390625 -0.0625 0.78125 -0.15625q0.375 -0.09375 0.6875 -0.3125q0.3125 -0.21875 0.453125 -0.734375l3.296875 -11.6875q0.109375 -0.421875 0.140625 -0.625q0.046875 -0.203125 0.046875 -0.296875q0 -0.328125 -0.234375 -0.546875q-0.21875 -0.21875 -0.703125 -0.21875q-0.125 0 -0.234375 0q-0.09375 0 -0.25 0q-0.140625 0 -0.34375 0.015625q-0.203125 0.015625 -0.515625 0.03125l0 -0.359375q1.21875 -0.1875 2.40625 -0.46875q1.1875 -0.28125 2.234375 -0.4375l0.1875 0.140625zm13.265564 2.875q0 0.578125 -0.171875 1.046875q-0.15625 0.46875 -0.578125 0.890625q-0.421875 0.421875 -1.140625 0.8125q-0.71875 0.390625 -1.828125 0.828125l0 0.078125q1.21875 0.546875 1.75 1.421875q0.53125 0.859375 0.53125 2.171875q0 1.296875 -0.5 2.421875q-0.5 1.109375 -1.40625 1.9375q-0.90625 0.828125 -2.125 1.296875q-1.203125 0.46875 -2.609375 0.46875q-1.328125 0 -2.03125 -0.375q-0.6875 -0.375 -0.6875 -1.0625q0 -0.921875 1.078125 -0.921875q0.4375 0 0.8125 0.234375q0.390625 0.21875 0.765625 0.484375q0.390625 0.265625 0.78125 0.5q0.40625 0.21875 0.859375 0.21875q0.671875 0 1.25 -0.296875q0.59375 -0.296875 1.0 -0.828125q0.40625 -0.546875 0.640625 -1.25q0.25 -0.71875 0.25 -1.5625q0 -1.9375 -0.96875 -2.953125q-0.96875 -1.015625 -2.984375 -1.015625l-0.484375 0l-0.015625 -0.390625q0.375 -0.078125 0.671875 -0.125q0.296875 -0.046875 0.59375 -0.109375q0.3125 -0.078125 0.625 -0.171875q0.328125 -0.09375 0.765625 -0.25q1.4375 -0.515625 2.25 -1.328125q0.828125 -0.828125 0.828125 -2.03125q0 -1.0 -0.59375 -1.578125q-0.59375 -0.578125 -1.53125 -0.578125q-0.765625 0 -1.421875 0.390625q-0.640625 0.375 -1.265625 1.21875l-0.375 -0.125q0.578125 -1.140625 1.609375 -1.8125q1.046875 -0.671875 2.28125 -0.671875q0.6875 0 1.3125 0.21875q0.625 0.203125 1.078125 0.609375q0.453125 0.390625 0.71875 0.953125q0.265625 0.5625 0.265625 1.234375zm4.156189 12.171875q0 0.53125 -0.40625 0.921875q-0.390625 0.375 -0.9375 0.375q-0.546875 0 -0.9375 -0.375q-0.390625 -0.375 -0.390625 -0.921875q0 -0.546875 0.390625 -0.953125q0.390625 -0.421875 0.9375 -0.421875q0.546875 0 0.9375 0.421875q0.40625 0.40625 0.40625 0.953125z" fill-rule="nonzero"/><path fill="#000000" fill-opacity="0.0" d="m28.4042 80.53018l341.19684 0l0 48.472443l-341.19684 0z" fill-rule="evenodd"/><path fill="#000000" d="m121.10901 97.13268q0.765625 0 1.078125 -0.78125l0.5 0l0.21875 5.390625l-0.546875 0q-0.046875 -0.15625 -0.09375 -0.296875q-0.046875 -0.15625 -0.09375 -0.328125q-0.25 -0.765625 -0.6875 -1.453125q-0.421875 -0.703125 -1.03125 -1.21875q-0.609375 -0.515625 -1.4375 -0.828125q-0.8125 -0.3125 -1.84375 -0.3125q-1.3125 0 -2.40625 0.5625q-1.078125 0.546875 -1.90625 1.625q-1.375 1.75 -1.375 5.140625q0 1.671875 0.40625 3.015625q0.40625 1.328125 1.171875 2.265625q0.78125 0.921875 1.859375 1.4375q1.09375 0.5 2.5 0.5q1.4375 0 2.78125 -0.5625q1.359375 -0.5625 2.59375 -1.859375l0.421875 0.421875q-0.453125 0.609375 -1.109375 1.15625q-0.640625 0.546875 -1.46875 0.96875q-0.828125 0.421875 -1.828125 0.671875q-0.984375 0.265625 -2.125 0.265625q-1.796875 0 -3.28125 -0.59375q-1.46875 -0.609375 -2.515625 -1.6875q-1.03125 -1.09375 -1.609375 -2.59375q-0.578125 -1.5 -0.578125 -3.3125q0 -1.828125 0.59375 -3.375q0.609375 -1.546875 1.6875 -2.640625q1.078125 -1.109375 2.578125 -1.734375q1.5 -0.625 3.296875 -0.625q0.53125 0 1.046875 0.0625q0.515625 0.046875 1.0 0.171875q0.78125 0.1875 1.375 0.375q0.609375 0.171875 0.828125 0.171875zm11.75795 13.015625q0 0.671875 0.140625 0.984375q0.15625 0.3125 0.578125 0.3125q0.265625 0 0.5 -0.09375q0.25 -0.09375 0.5625 -0.359375l0 0.625q-0.65625 0.6875 -1.109375 0.9375q-0.453125 0.25 -1.046875 0.25q-0.71875 0 -1.078125 -0.40625q-0.359375 -0.40625 -0.46875 -1.34375q-1.078125 0.9375 -1.890625 1.34375q-0.8125 0.40625 -1.609375 0.40625q-1.109375 0 -1.8125 -0.703125q-0.703125 -0.703125 -0.703125 -1.8125q0 -1.21875 0.765625 -2.03125q0.765625 -0.828125 2.1875 -1.421875l3.046875 -1.28125l0 -1.53125q0 -0.859375 -0.46875 -1.390625q-0.453125 -0.53125 -1.359375 -0.53125q-0.75 0 -1.234375 0.359375q-0.484375 0.34375 -0.484375 0.828125q0 0.3125 0.046875 0.546875q0.0625 0.234375 0.0625 0.328125q0 0.484375 -0.34375 0.796875q-0.328125 0.296875 -0.734375 0.296875q-0.4375 0 -0.734375 -0.3125q-0.296875 -0.3125 -0.296875 -0.75q0 -0.546875 0.3125 -1.03125q0.3125 -0.5 0.84375 -0.859375q0.546875 -0.359375 1.265625 -0.5625q0.71875 -0.21875 1.53125 -0.21875q0.4375 0 1.046875 0.09375q0.609375 0.078125 1.15625 0.421875q0.5625 0.328125 0.9375 1.015625q0.390625 0.6875 0.390625 1.90625l0 5.1875zm-4.3125 1.265625q0.3125 0 0.75 -0.109375q0.453125 -0.125 0.921875 -0.390625q0.3125 -0.1875 0.5 -0.40625q0.203125 -0.21875 0.203125 -0.8125l0 -3.5625l-1.25 0.484375q-1.21875 0.484375 -1.9375 1.1875q-0.703125 0.703125 -0.703125 1.71875q0 0.8125 0.421875 1.359375q0.4375 0.53125 1.09375 0.53125zm9.9841 -9.828125l0 2.125l0.046875 0q0.578125 -0.890625 1.265625 -1.53125q0.703125 -0.65625 1.59375 -0.65625q0.59375 0 0.9375 0.359375q0.359375 0.34375 0.359375 0.921875q0 0.5 -0.265625 0.796875q-0.25 0.28125 -0.671875 0.28125q-0.265625 0 -0.484375 -0.125q-0.21875 -0.140625 -0.40625 -0.296875q-0.1875 -0.15625 -0.375 -0.28125q-0.1875 -0.140625 -0.34375 -0.140625q-0.265625 0 -0.5625 0.203125q-0.28125 0.203125 -0.53125 0.515625q-0.234375 0.296875 -0.40625 0.640625q-0.15625 0.328125 -0.15625 0.59375l0 5.484375q0 0.40625 0.046875 0.734375q0.0625 0.328125 0.25 0.546875q0.203125 0.21875 0.546875 0.34375q0.359375 0.109375 0.90625 0.109375l0.28125 0l0 0.359375l-5.75 0l0 -0.359375q0.046875 0 0.09375 -0.015625q0.046875 -0.015625 0.09375 -0.015625q0.4375 -0.0625 0.734375 -0.15625q0.296875 -0.09375 0.46875 -0.265625q0.171875 -0.171875 0.234375 -0.4375q0.078125 -0.265625 0.078125 -0.671875l0 -6.1875q0 -0.65625 -0.171875 -1.0q-0.171875 -0.34375 -0.671875 -0.34375q-0.171875 0 -0.390625 0.03125q-0.203125 0.015625 -0.421875 0.0625l0 -0.390625q0.859375 -0.28125 1.796875 -0.59375q0.953125 -0.3125 1.75 -0.703125l0.125 0.0625zm14.320099 -5.359375l0 13.703125q0 0.4375 0.0625 0.703125q0.0625 0.25 0.1875 0.375q0.140625 0.125 0.3125 0.15625q0.1875 0.03125 0.40625 0.03125q0.140625 0 0.265625 0q0.140625 -0.015625 0.375 -0.015625l0 0.375l-3.53125 1.25l-0.09375 -0.0625l0 -1.46875l-0.046875 0q-1.09375 1.53125 -3.015625 1.53125q-1.015625 0 -1.84375 -0.375q-0.828125 -0.390625 -1.40625 -1.078125q-0.578125 -0.703125 -0.890625 -1.640625q-0.3125 -0.953125 -0.3125 -2.109375q0 -1.25 0.390625 -2.34375q0.390625 -1.109375 1.0625 -1.9375q0.671875 -0.828125 1.578125 -1.3125q0.90625 -0.484375 1.96875 -0.484375q0.71875 0 1.265625 0.234375q0.5625 0.234375 1.25 0.796875l0 -3.8125q0 -0.625 -0.171875 -0.875q-0.15625 -0.265625 -0.78125 -0.265625q-0.1875 0 -0.34375 0q-0.140625 0 -0.328125 0.015625l0 -0.390625q0.765625 -0.15625 1.25 -0.296875q0.5 -0.15625 0.875 -0.265625q0.375 -0.125 0.671875 -0.234375q0.3125 -0.125 0.734375 -0.25l0.109375 0.046875zm-4.140625 15.328125q0.453125 0 0.84375 -0.140625q0.390625 -0.15625 0.671875 -0.375q0.296875 -0.21875 0.453125 -0.453125q0.15625 -0.25 0.15625 -0.4375l0 -5.59375q0 -0.4375 -0.1875 -0.859375q-0.1875 -0.4375 -0.53125 -0.75q-0.328125 -0.328125 -0.796875 -0.53125q-0.453125 -0.21875 -0.984375 -0.21875q-1.3125 0 -2.125 1.203125q-0.8125 1.203125 -0.8125 3.3125q0 1.078125 0.234375 1.96875q0.234375 0.890625 0.671875 1.546875q0.4375 0.640625 1.046875 0.984375q0.609375 0.34375 1.359375 0.34375zm12.76561 -9.546875q0.21875 0 0.40625 -0.265625l0.265625 0l0.09375 3.296875l-0.359375 0q-0.390625 -1.59375 -1.03125 -2.265625q-0.625 -0.6875 -1.640625 -0.6875q-0.8125 0 -1.3125 0.453125q-0.5 0.453125 -0.5 1.15625q0 0.625 0.3125 1.03125q0.3125 0.40625 0.90625 0.734375l2.78125 1.65625q1.640625 0.984375 1.640625 2.578125q0 0.671875 -0.28125 1.25q-0.28125 0.5625 -0.75 0.984375q-0.46875 0.40625 -1.125 0.640625q-0.640625 0.234375 -1.359375 0.234375q-0.28125 0 -0.6875 -0.078125q-0.390625 -0.0625 -0.796875 -0.140625q-0.390625 -0.0625 -0.734375 -0.125q-0.34375 -0.078125 -0.515625 -0.078125q-0.140625 0 -0.28125 0.03125q-0.14064026 0.03125 -0.26564026 0.25l-0.3125 0l0 -3.734375l0.375 0l0.12501526 0.5q0.171875 0.734375 0.390625 1.203125q0.421875 0.875 1.09375 1.265625q0.671875 0.390625 1.453125 0.390625q0.90625 0 1.4375 -0.46875q0.546875 -0.46875 0.546875 -1.265625q0 -0.59375 -0.34375 -1.03125q-0.328125 -0.4375 -1.171875 -0.90625q-0.90625 -0.53125 -1.734375 -1.015625q-0.8125 -0.484375 -1.359375 -1.0625q-0.40626526 -0.421875 -0.62501526 -0.90625q-0.21875 -0.5 -0.21875 -1.125q0 -0.65625 0.25 -1.1875q0.26564026 -0.546875 0.68751526 -0.9375q0.4375 -0.390625 1.046875 -0.625q0.609375 -0.234375 1.328125 -0.234375q0.84375 0 1.421875 0.25q0.578125 0.234375 0.84375 0.234375zm7.148468 0.921875q0 0.515625 -0.40625 0.90625q-0.390625 0.375 -0.9375 0.375q-0.546875 0 -0.9375 -0.359375q-0.390625 -0.375 -0.390625 -0.921875q0 -0.5625 0.390625 -0.96875q0.390625 -0.40625 0.9375 -0.40625q0.546875 0 0.9375 0.40625q0.40625 0.40625 0.40625 0.96875zm0 8.609375q0 0.53125 -0.40625 0.921875q-0.390625 0.375 -0.9375 0.375q-0.546875 0 -0.9375 -0.375q-0.390625 -0.375 -0.390625 -0.921875q0 -0.546875 0.390625 -0.953125q0.390625 -0.421875 0.9375 -0.421875q0.546875 0 0.9375 0.421875q0.40625 0.40625 0.40625 0.953125zm15.234467 -14.859375l0 0.609375l-2.203125 0q-1.03125 0 -1.03125 1.0l0 16.21875q0 0.578125 0.296875 0.890625q0.296875 0.3125 0.828125 0.3125l2.109375 0l0 0.609375l-5.0625 0l0 -19.640625l5.0625 0zm10.991974 3.96875q0 1.359375 -0.75 2.796875q-0.734375 1.421875 -2.25 3.0l-4.09375 4.296875l5.828125 0q0.4375 0 0.71875 -0.09375q0.28125 -0.09375 0.515625 -0.28125q0.25 -0.203125 0.46875 -0.5q0.21875 -0.296875 0.484375 -0.703125l0.3125 0.125l-1.328125 3.28125l-9.359375 0l0 -0.28125q1.65625 -1.765625 2.65625 -2.8125q1.0 -1.0625 1.5625 -1.671875q0.5625 -0.609375 0.796875 -0.875q0.234375 -0.28125 0.390625 -0.5q0.78125 -1.15625 1.375 -2.34375q0.609375 -1.1875 0.609375 -2.484375q0 -1.578125 -0.921875 -2.53125q-0.90625 -0.953125 -2.4375 -0.953125q-1.34375 0 -2.109375 0.75q-0.75 0.75 -1.390625 2.375l-0.5 -0.125q0.15625 -0.6875 0.34375 -1.28125q0.203125 -0.609375 0.484375 -1.09375q0.71875 -1.21875 1.796875 -1.796875q1.09375 -0.59375 2.390625 -0.59375q0.953125 0 1.75 0.34375q0.8125 0.328125 1.390625 0.90625q0.59375 0.5625 0.921875 1.34375q0.34375 0.78125 0.34375 1.703125zm6.5155945 11.6875q0 1.0 -0.75 2.0q-0.75 1.015625 -1.953125 1.625l-0.203125 -0.46875q0.640625 -0.421875 1.078125 -0.859375q0.484375 -0.484375 0.6875 -0.921875q0.203125 -0.4375 0.203125 -0.75q0 -0.34375 -0.3125 -0.34375q-0.078125 0 -0.265625 0.046875q-0.171875 0.046875 -0.3125 0.046875q-0.765625 0 -1.140625 -0.3125q-0.375 -0.328125 -0.375 -0.90625q0 -0.625 0.390625 -1.0q0.40625 -0.375 1.03125 -0.375q0.828125 0 1.375 0.625q0.546875 0.625 0.546875 1.59375zm14.9374695 -15.65625l0 0.453125l-0.546875 0.078125q-0.546875 0.078125 -0.875 0.203125q-0.328125 0.109375 -0.5 0.34375q-0.15625 0.21875 -0.21875 0.578125q-0.0625 0.359375 -0.0625 0.890625l0 4.984375q0.703125 -0.609375 1.40625 -1.25q0.703125 -0.640625 1.40625 -1.265625q1.171875 -1.046875 1.84375 -1.703125q0.671875 -0.671875 1.0 -1.078125q0.328125 -0.40625 0.390625 -0.625q0.078125 -0.234375 0.078125 -0.4375q0 -0.40625 -0.28125 -0.5625q-0.28125 -0.15625 -1.015625 -0.15625l-0.34375 0l0 -0.453125l6.296875 0l0 0.453125l-0.265625 0.03125q-0.40625 0.046875 -0.75 0.109375q-0.328125 0.0625 -0.6875 0.21875q-0.359375 0.15625 -0.78125 0.46875q-0.421875 0.3125 -0.953125 0.828125l-4.78125 4.734375l4.765625 5.09375q0.203125 0.234375 0.5 0.5625q0.3125 0.3125 0.640625 0.671875q0.34375 0.34375 0.671875 0.6875q0.34375 0.34375 0.671875 0.65625q0.484375 0.46875 0.875 0.65625q0.40625 0.1875 0.71875 0.234375q0.109375 0.03125 0.25 0.03125q0.15625 0 0.28125 0l0 0.453125l-7.328125 0l0 -0.453125l0.28125 0q0.890625 0 1.140625 -0.125q0.265625 -0.140625 0.265625 -0.4375q0 -0.328125 -0.703125 -1.328125q-0.703125 -1.015625 -2.140625 -2.453125l-2.828125 -2.8125l-0.625 0.5l0 4.609375q0 0.9375 0.28125 1.40625q0.296875 0.453125 1.3125 0.5625l0.5625 0.078125l0 0.453125l-6.765625 0l0 -0.453125l0.5625 -0.078125q0.5 -0.0625 0.8125 -0.1875q0.3125 -0.140625 0.484375 -0.390625q0.1875 -0.265625 0.234375 -0.671875q0.0625 -0.40625 0.0625 -0.984375l0 -10.609375q0 -0.984375 -0.3125 -1.421875q-0.296875 -0.4375 -1.265625 -0.5625l-0.578125 -0.078125l0 -0.453125l6.8125 0zm14.390442 15.65625q0 1.0 -0.75 2.0q-0.75 1.015625 -1.953125 1.625l-0.203125 -0.46875q0.640625 -0.421875 1.078125 -0.859375q0.484375 -0.484375 0.6875 -0.921875q0.203125 -0.4375 0.203125 -0.75q0 -0.34375 -0.3125 -0.34375q-0.078125 0 -0.265625 0.046875q-0.171875 0.046875 -0.3125 0.046875q-0.765625 0 -1.140625 -0.3125q-0.375 -0.328125 -0.375 -0.90625q0 -0.625 0.390625 -1.0q0.40625 -0.375 1.03125 -0.375q0.828125 0 1.375 0.625q0.546875 0.625 0.546875 1.59375zm14.2966 -15.9375l0.484375 0l5.921875 13.53125q0.65625 1.484375 1.0625 1.828125q0.140625 0.109375 0.359375 0.203125q0.234375 0.078125 0.5 0.125q0.09375 0.03125 0.28125 0.03125l0 0.453125l-6.109375 0l0 -0.453125q0.1875 0 0.359375 0q0.1875 0 0.328125 -0.03125q0.5625 -0.046875 0.765625 -0.25q0.21875 -0.203125 0.21875 -0.609375q0 -0.484375 -0.40625 -1.40625q-0.40625 -0.921875 -1.03125 -2.4375l-6.28125 0l-1.140625 2.890625q-0.15625 0.40625 -0.15625 0.828125q0 0.453125 0.28125 0.703125q0.296875 0.234375 0.9375 0.28125q0.09375 0 0.1875 0.015625q0.09375 0.015625 0.21875 0.015625l0 0.453125l-4.75 0l0 -0.453125q0.171875 0 0.40625 -0.046875q0.34375 -0.078125 0.578125 -0.265625q0.234375 -0.1875 0.484375 -0.546875q0.3125 -0.46875 0.65625 -1.1875q0.34375 -0.71875 0.796875 -1.796875l5.046875 -11.875zm-3.140625 10.0l5.546875 0l-2.796875 -6.59375l-2.75 6.59375zm16.827942 5.9375q0 1.0 -0.75 2.0q-0.75 1.015625 -1.953125 1.625l-0.203125 -0.46875q0.640625 -0.421875 1.078125 -0.859375q0.484375 -0.484375 0.6875 -0.921875q0.203125 -0.4375 0.203125 -0.75q0 -0.34375 -0.3125 -0.34375q-0.078125 0 -0.265625 0.046875q-0.171875 0.046875 -0.3125 0.046875q-0.765625 0 -1.140625 -0.3125q-0.375 -0.328125 -0.375 -0.90625q0 -0.625 0.390625 -1.0q0.40625 -0.375 1.03125 -0.375q0.828125 0 1.375 0.625q0.546875 0.625 0.546875 1.59375zm14.2966 -15.9375l0.484375 0l5.921875 13.53125q0.65625 1.484375 1.0625 1.828125q0.140625 0.109375 0.359375 0.203125q0.234375 0.078125 0.5 0.125q0.09375 0.03125 0.28125 0.03125l0 0.453125l-6.109375 0l0 -0.453125q0.1875 0 0.359375 0q0.1875 0 0.328125 -0.03125q0.5625 -0.046875 0.765625 -0.25q0.21875 -0.203125 0.21875 -0.609375q0 -0.484375 -0.40625 -1.40625q-0.40625 -0.921875 -1.03125 -2.4375l-6.28125 0l-1.140625 2.890625q-0.15625 0.40625 -0.15625 0.828125q0 0.453125 0.28125 0.703125q0.296875 0.234375 0.9375 0.28125q0.09375 0 0.1875 0.015625q0.09375 0.015625 0.21875 0.015625l0 0.453125l-4.75 0l0 -0.453125q0.171875 0 0.40625 -0.046875q0.34375 -0.078125 0.578125 -0.265625q0.234375 -0.1875 0.484375 -0.546875q0.3125 -0.46875 0.65625 -1.1875q0.34375 -0.71875 0.796875 -1.796875l5.046875 -11.875zm-3.140625 10.0l5.546875 0l-2.796875 -6.59375l-2.75 6.59375zm18.015442 -9.71875l0 19.640625l-5.0625 0l0 -0.609375l2.21875 0q1.03125 0 1.03125 -1.0l0 -16.234375q0 -0.5625 -0.3125 -0.875q-0.296875 -0.3125 -0.828125 -0.3125l-2.109375 0l0 -0.609375l5.0625 0z" fill-rule="nonzero"/><path fill="#000000" fill-opacity="0.0" d="m391.00262 170.85826l341.19684 0l0 38.771667l-341.19684 0z" fill-rule="evenodd"/><path fill="#999999" d="m473.43005 184.62451q0.921875 0 1.640625 0.1875q0.734375 0.1875 1.25 0.53125q0.515625 0.34375 0.796875 0.859375q0.28125 0.515625 0.28125 1.1875q0 1.203125 -0.78125 1.859375q-0.765625 0.65625 -2.109375 0.859375l3.296875 4.046875q0.203125 0.28125 0.484375 0.484375q0.296875 0.1875 0.546875 0.21875l0.359375 0.0625l0 0.296875l-2.578125 0l-3.8125 -4.921875l-0.890625 0.03125l0 3.234375q0 0.546875 0.125 0.84375q0.125 0.28125 0.640625 0.40625q0.125 0.03125 0.296875 0.046875q0.171875 0.015625 0.375 0.0625l0 0.296875l-4.4375 0l0 -0.296875q0.140625 -0.015625 0.25 -0.03125q0.109375 -0.015625 0.21875 -0.046875q0.296875 -0.046875 0.46875 -0.140625q0.171875 -0.09375 0.265625 -0.234375q0.09375 -0.140625 0.125 -0.34375q0.03125 -0.21875 0.03125 -0.5l0 -7.328125q0 -0.359375 -0.046875 -0.578125q-0.03125 -0.234375 -0.140625 -0.375q-0.109375 -0.140625 -0.328125 -0.21875q-0.203125 -0.078125 -0.546875 -0.140625l-0.296875 -0.046875l0 -0.3125l4.515625 0zm-1.515625 5.109375q0.203125 0 0.4375 0q0.25 0 0.421875 -0.015625q0.8125 -0.046875 1.359375 -0.234375q0.5625 -0.203125 0.890625 -0.5q0.34375 -0.3125 0.484375 -0.703125q0.15625 -0.40625 0.15625 -0.890625q0 -2.171875 -2.828125 -2.171875q-0.15625 0 -0.3125 0.015625q-0.140625 0 -0.3125 0.046875q-0.296875 0.09375 -0.296875 0.484375l0 3.96875zm9.890778 -1.71875l0 5.25q0 0.484375 0.328125 0.84375q0.34375 0.34375 0.875 0.34375q0.28125 0 0.609375 -0.109375q0.34375 -0.109375 0.609375 -0.328125q0.203125 -0.15625 0.3125 -0.328125q0.109375 -0.171875 0.109375 -0.578125l0 -3.859375q0 -0.515625 -0.203125 -0.734375q-0.1875 -0.21875 -0.765625 -0.21875l-0.21875 0l0 -0.28125l2.53125 0l0 5.546875q0 0.40625 0.109375 0.609375q0.109375 0.1875 0.5 0.234375q0.078125 0.015625 0.171875 0.015625q0.09375 0 0.203125 0l0 0.21875q-0.421875 0.125 -0.671875 0.203125q-0.234375 0.078125 -0.4375 0.15625q-0.1875 0.0625 -0.4375 0.15625q-0.234375 0.078125 -0.671875 0.203125l-0.03125 -0.03125l0 -1.328125q-0.25 0.265625 -0.484375 0.5q-0.234375 0.234375 -0.46875 0.421875q-0.296875 0.21875 -0.65625 0.328125q-0.359375 0.125 -0.75 0.125q-0.890625 0 -1.40625 -0.5625q-0.5 -0.578125 -0.5 -1.46875l0 -4.125q0 -0.421875 -0.140625 -0.640625q-0.140625 -0.21875 -0.5625 -0.296875q-0.171875 -0.03125 -0.296875 -0.03125l0 -0.234375l2.34375 0zm8.4219055 -3.6875l0 9.59375q0 0.53125 0.171875 0.78125q0.1875 0.25 0.75 0.28125l0.28125 0l0 0.234375l-3.765625 0l0 -0.234375l0.25 -0.03125q0.59375 -0.09375 0.78125 -0.3125q0.1875 -0.21875 0.1875 -0.765625l0 -7.640625q0 -0.21875 -0.015625 -0.40625q0 -0.1875 -0.0625 -0.3125q-0.0625 -0.140625 -0.203125 -0.21875q-0.125 -0.078125 -0.390625 -0.078125q-0.109375 0 -0.28125 0.015625q-0.171875 0 -0.3125 0.015625l0 -0.25q0.984375 -0.25 1.546875 -0.40625q0.578125 -0.171875 0.984375 -0.296875l0.078125 0.03125zm3.041748 6.453125q0.078125 1.125 0.34375 1.8125q0.28125 0.671875 0.65625 1.046875q0.375 0.375 0.796875 0.515625q0.421875 0.125 0.765625 0.125q0.75 0 1.3125 -0.390625q0.578125 -0.390625 1.15625 -1.296875l0.25 0.109375q-0.515625 1.3125 -1.375 2.0q-0.859375 0.671875 -2.015625 0.671875q-1.40625 0 -2.203125 -0.96875q-0.78125 -0.96875 -0.78125 -2.609375q0 -0.875 0.234375 -1.59375q0.25 -0.734375 0.6875 -1.25q0.453125 -0.515625 1.046875 -0.796875q0.609375 -0.296875 1.359375 -0.296875q0.421875 0 0.84375 0.125q0.4375 0.109375 0.796875 0.375q0.359375 0.265625 0.609375 0.6875q0.265625 0.40625 0.390625 1.0q0.03125 0.15625 0.0625 0.375q0.03125 0.21875 0.046875 0.359375l-4.984375 0zm3.34375 -0.5q-0.09375 -0.921875 -0.4375 -1.375q-0.34375 -0.46875 -1.109375 -0.46875q-0.34375 0 -0.609375 0.078125q-0.265625 0.078125 -0.484375 0.296875q-0.21875 0.203125 -0.390625 0.5625q-0.15625 0.359375 -0.265625 0.90625l3.296875 0zm6.8227844 0.828125l0 1.0l-3.9375 0l0 -1.0l3.9375 0zm3.140503 -6.8125l0.078125 0.03125l0 4.828125l0.03125 0q0.09375 -0.25 0.3125 -0.484375q0.21875 -0.234375 0.5 -0.421875q0.296875 -0.1875 0.640625 -0.28125q0.359375 -0.109375 0.734375 -0.109375q0.625 0 1.140625 0.28125q0.53125 0.28125 0.890625 0.75q0.375 0.46875 0.578125 1.109375q0.203125 0.625 0.203125 1.34375q0 0.84375 -0.296875 1.59375q-0.28125 0.734375 -0.796875 1.28125q-0.5 0.53125 -1.1875 0.84375q-0.6875 0.3125 -1.5 0.3125q-0.4375 0 -0.890625 -0.09375q-0.453125 -0.078125 -0.84375 -0.21875q-0.375 -0.140625 -0.625 -0.3125q-0.234375 -0.1875 -0.234375 -0.375l0 -8.390625q0 -0.421875 -0.125 -0.578125q-0.125 -0.171875 -0.484375 -0.171875q-0.1875 0 -0.3125 0q-0.125 0 -0.140625 0.015625l0 -0.25q0.125 -0.03125 0.34375 -0.09375q0.21875 -0.0625 0.640625 -0.1875l1.34375 -0.421875zm0.078125 9.8125q0 0.296875 0.453125 0.53125q0.453125 0.21875 1.125 0.21875q0.984375 0 1.515625 -0.734375q0.53125 -0.75 0.53125 -2.109375q0 -1.40625 -0.546875 -2.28125q-0.546875 -0.875 -1.5 -0.875q-0.3125 0 -0.609375 0.109375q-0.28125 0.109375 -0.5 0.265625q-0.21875 0.15625 -0.34375 0.375q-0.125 0.21875 -0.125 0.421875l0 4.078125zm11.4375305 -0.5q0 0.4375 0.09375 0.65625q0.09375 0.203125 0.390625 0.203125q0.171875 0 0.328125 -0.0625q0.15625 -0.0625 0.375 -0.25l0 0.421875q-0.4375 0.46875 -0.75 0.640625q-0.296875 0.15625 -0.703125 0.15625q-0.46875 0 -0.71875 -0.265625q-0.234375 -0.28125 -0.296875 -0.90625q-0.71875 0.625 -1.265625 0.90625q-0.546875 0.265625 -1.078125 0.265625q-0.734375 0 -1.203125 -0.46875q-0.46875 -0.46875 -0.46875 -1.203125q0 -0.828125 0.5 -1.359375q0.515625 -0.546875 1.46875 -0.953125l2.03125 -0.84375l0 -1.03125q0 -0.5625 -0.3125 -0.90625q-0.296875 -0.359375 -0.90625 -0.359375q-0.5 0 -0.828125 0.234375q-0.328125 0.21875 -0.328125 0.546875q0 0.203125 0.03125 0.375q0.046875 0.15625 0.046875 0.21875q0 0.3125 -0.21875 0.515625q-0.21875 0.203125 -0.5 0.203125q-0.28125 0 -0.484375 -0.203125q-0.203125 -0.21875 -0.203125 -0.5q0 -0.375 0.203125 -0.703125q0.21875 -0.328125 0.578125 -0.5625q0.359375 -0.25 0.828125 -0.375q0.484375 -0.140625 1.03125 -0.140625q0.296875 0 0.703125 0.0625q0.40625 0.046875 0.765625 0.28125q0.375 0.21875 0.625 0.671875q0.265625 0.453125 0.265625 1.265625l0 3.46875zm-2.875 0.84375q0.203125 0 0.5 -0.078125q0.296875 -0.078125 0.609375 -0.265625q0.21875 -0.125 0.34375 -0.265625q0.125 -0.140625 0.125 -0.546875l0 -2.359375l-0.828125 0.3125q-0.828125 0.328125 -1.296875 0.796875q-0.46875 0.46875 -0.46875 1.140625q0 0.546875 0.28125 0.90625q0.296875 0.359375 0.734375 0.359375zm8.619629 -6.28125q0.140625 0 0.265625 -0.171875l0.171875 0l0.078125 2.1875l-0.25 0q-0.25 -1.046875 -0.671875 -1.5q-0.421875 -0.453125 -1.09375 -0.453125q-0.546875 0 -0.890625 0.296875q-0.328125 0.296875 -0.328125 0.765625q0 0.421875 0.203125 0.703125q0.203125 0.265625 0.609375 0.484375l1.859375 1.109375q1.078125 0.65625 1.078125 1.703125q0 0.453125 -0.1875 0.84375q-0.171875 0.375 -0.484375 0.65625q-0.3125 0.265625 -0.75 0.421875q-0.421875 0.15625 -0.90625 0.15625q-0.1875 0 -0.453125 -0.046875q-0.265625 -0.046875 -0.53125 -0.09375q-0.265625 -0.046875 -0.5 -0.09375q-0.234375 -0.046875 -0.34375 -0.046875q-0.09375 0 -0.1875 0.03125q-0.09375 0.015625 -0.171875 0.15625l-0.21875 0l0 -2.5l0.265625 0l0.078125 0.34375q0.109375 0.5 0.25 0.796875q0.296875 0.59375 0.734375 0.859375q0.453125 0.25 0.96875 0.25q0.609375 0 0.96875 -0.3125q0.359375 -0.3125 0.359375 -0.84375q0 -0.40625 -0.234375 -0.6875q-0.21875 -0.28125 -0.78125 -0.609375q-0.609375 -0.34375 -1.15625 -0.65625q-0.53125 -0.328125 -0.90625 -0.71875q-0.265625 -0.28125 -0.421875 -0.609375q-0.140625 -0.328125 -0.140625 -0.75q0 -0.4375 0.171875 -0.796875q0.171875 -0.359375 0.453125 -0.625q0.296875 -0.265625 0.703125 -0.40625q0.40625 -0.15625 0.890625 -0.15625q0.546875 0 0.9375 0.15625q0.390625 0.15625 0.5625 0.15625zm3.19281 2.609375q0.078125 1.125 0.34375 1.8125q0.28125 0.671875 0.65625 1.046875q0.375 0.375 0.796875 0.515625q0.421875 0.125 0.765625 0.125q0.75 0 1.3125 -0.390625q0.578125 -0.390625 1.15625 -1.296875l0.25 0.109375q-0.515625 1.3125 -1.375 2.0q-0.859375 0.671875 -2.015625 0.671875q-1.40625 0 -2.203125 -0.96875q-0.78125 -0.96875 -0.78125 -2.609375q0 -0.875 0.234375 -1.59375q0.25 -0.734375 0.6875 -1.25q0.453125 -0.515625 1.046875 -0.796875q0.609375 -0.296875 1.359375 -0.296875q0.421875 0 0.84375 0.125q0.4375 0.109375 0.796875 0.375q0.359375 0.265625 0.609375 0.6875q0.265625 0.40625 0.390625 1.0q0.03125 0.15625 0.0625 0.375q0.03125 0.21875 0.046875 0.359375l-4.984375 0zm3.34375 -0.5q-0.09375 -0.921875 -0.4375 -1.375q-0.34375 -0.46875 -1.109375 -0.46875q-0.34375 0 -0.609375 0.078125q-0.265625 0.078125 -0.484375 0.296875q-0.21875 0.203125 -0.390625 0.5625q-0.15625 0.359375 -0.265625 0.90625l3.296875 0zm13.775879 1.1875q0 0.828125 -0.28125 1.546875q-0.265625 0.703125 -0.75 1.234375q-0.46875 0.515625 -1.125 0.828125q-0.640625 0.296875 -1.390625 0.296875q-0.75 0 -1.40625 -0.28125q-0.640625 -0.296875 -1.109375 -0.796875q-0.46875 -0.515625 -0.734375 -1.203125q-0.25 -0.6875 -0.25 -1.5q0 -0.828125 0.25 -1.515625q0.265625 -0.6875 0.734375 -1.171875q0.46875 -0.484375 1.09375 -0.765625q0.640625 -0.28125 1.390625 -0.28125q0.796875 0 1.453125 0.28125q0.671875 0.265625 1.140625 0.75q0.484375 0.46875 0.734375 1.140625q0.25 0.65625 0.25 1.4375zm-3.3125 3.46875q0.890625 0 1.375 -0.765625q0.5 -0.78125 0.5 -2.171875q0 -0.78125 -0.171875 -1.453125q-0.15625 -0.6875 -0.453125 -1.1875q-0.296875 -0.5 -0.734375 -0.765625q-0.421875 -0.28125 -0.9375 -0.28125q-0.828125 0 -1.359375 0.671875q-0.515625 0.65625 -0.515625 1.890625q0 0.75 0.140625 1.46875q0.15625 0.71875 0.4375 1.3125q0.25 0.546875 0.65625 0.921875q0.421875 0.359375 1.0625 0.359375zm6.28125 -6.921875l0 5.25q0 0.484375 0.328125 0.84375q0.34375 0.34375 0.875 0.34375q0.28125 0 0.609375 -0.109375q0.34375 -0.109375 0.609375 -0.328125q0.203125 -0.15625 0.3125 -0.328125q0.109375 -0.171875 0.109375 -0.578125l0 -3.859375q0 -0.515625 -0.203125 -0.734375q-0.1875 -0.21875 -0.765625 -0.21875l-0.21875 0l0 -0.28125l2.53125 0l0 5.546875q0 0.40625 0.109375 0.609375q0.109375 0.1875 0.5 0.234375q0.078125 0.015625 0.171875 0.015625q0.09375 0 0.203125 0l0 0.21875q-0.421875 0.125 -0.671875 0.203125q-0.234375 0.078125 -0.4375 0.15625q-0.1875 0.0625 -0.4375 0.15625q-0.234375 0.078125 -0.671875 0.203125l-0.03125 -0.03125l0 -1.328125q-0.25 0.265625 -0.484375 0.5q-0.234375 0.234375 -0.46875 0.421875q-0.296875 0.21875 -0.65625 0.328125q-0.359375 0.125 -0.75 0.125q-0.890625 0 -1.40625 -0.5625q-0.5 -0.578125 -0.5 -1.46875l0 -4.125q0 -0.421875 -0.140625 -0.640625q-0.140625 -0.21875 -0.5625 -0.296875q-0.171875 -0.03125 -0.296875 -0.03125l0 -0.234375l2.34375 0zm7.984436 -2.0625l0 2.0625l1.59375 0l0 0.515625l-1.59375 0l0 4.890625q0 0.546875 0.1875 0.828125q0.1875 0.28125 0.640625 0.28125q0.421875 0 0.953125 -0.546875l0.234375 0.15625q-0.796875 1.234375 -1.859375 1.234375q-0.21875 0 -0.59375 -0.109375q-0.375 -0.09375 -0.59375 -0.421875q-0.078125 -0.109375 -0.140625 -0.21875q-0.046875 -0.109375 -0.09375 -0.265625q-0.03125 -0.171875 -0.0625 -0.40625q-0.015625 -0.25 -0.015625 -0.671875l0 -4.75l-0.921875 0l0 -0.203125q0.734375 -0.53125 1.25 -1.109375q0.515625 -0.59375 0.828125 -1.265625l0.1875 0zm6.541748 5.15625l0 1.0l-3.9375 0l0 -1.0l3.9375 0zm8.281128 0.359375q0 0.828125 -0.28125 1.546875q-0.265625 0.703125 -0.75 1.234375q-0.46875 0.515625 -1.125 0.828125q-0.640625 0.296875 -1.390625 0.296875q-0.75 0 -1.40625 -0.28125q-0.640625 -0.296875 -1.109375 -0.796875q-0.46875 -0.515625 -0.734375 -1.203125q-0.25 -0.6875 -0.25 -1.5q0 -0.828125 0.25 -1.515625q0.265625 -0.6875 0.734375 -1.171875q0.46875 -0.484375 1.09375 -0.765625q0.640625 -0.28125 1.390625 -0.28125q0.796875 0 1.453125 0.28125q0.671875 0.265625 1.140625 0.75q0.484375 0.46875 0.734375 1.140625q0.25 0.65625 0.25 1.4375zm-3.3125 3.46875q0.890625 0 1.375 -0.765625q0.5 -0.78125 0.5 -2.171875q0 -0.78125 -0.171875 -1.453125q-0.15625 -0.6875 -0.453125 -1.1875q-0.296875 -0.5 -0.734375 -0.765625q-0.421875 -0.28125 -0.9375 -0.28125q-0.828125 0 -1.359375 0.671875q-0.515625 0.65625 -0.515625 1.890625q0 0.75 0.140625 1.46875q0.15625 0.71875 0.4375 1.3125q0.25 0.546875 0.65625 0.921875q0.421875 0.359375 1.0625 0.359375zm9.921875 -9.65625q0 0.28125 -0.1875 0.46875q-0.1875 0.1875 -0.5 0.1875q-0.25 0 -0.390625 -0.171875q-0.140625 -0.171875 -0.3125 -0.40625q-0.171875 -0.21875 -0.328125 -0.421875q-0.15625 -0.203125 -0.5 -0.203125q-0.484375 0 -0.71875 0.375q-0.21875 0.359375 -0.21875 0.984375l0 1.921875l1.96875 0l0 0.515625l-1.953125 0l0 5.109375q0 0.5 0.078125 0.734375q0.078125 0.234375 0.25 0.375q0.15625 0.125 0.4375 0.1875q0.28125 0.046875 0.421875 0.046875l0.3125 0l0 0.234375l-4.171875 0l0 -0.234375l0.109375 0q0.265625 0 0.484375 -0.03125q0.234375 -0.03125 0.390625 -0.15625q0.171875 -0.125 0.25 -0.375q0.09375 -0.265625 0.09375 -0.703125l0 -5.1875l-1.296875 0l0 -0.515625l1.296875 0q0 -0.421875 0.03125 -0.8125q0.046875 -0.390625 0.125 -0.71875q0.265625 -1.109375 0.9375 -1.640625q0.6875 -0.546875 1.71875 -0.546875q0.734375 0 1.203125 0.28125q0.46875 0.265625 0.46875 0.703125zm3.765564 5.828125l0 1.0l-3.9375 0l0 -1.0l3.9375 0zm7.546753 -6.78125l0 9.125q0 0.296875 0.03125 0.46875q0.046875 0.171875 0.140625 0.265625q0.09375 0.078125 0.203125 0.109375q0.125 0.015625 0.265625 0.015625q0.09375 0 0.1875 0q0.09375 -0.015625 0.25 -0.015625l0 0.25l-2.359375 0.828125l-0.0625 -0.046875l0 -0.96875l-0.03125 0q-0.734375 1.015625 -2.015625 1.015625q-0.671875 0 -1.234375 -0.25q-0.546875 -0.265625 -0.9375 -0.71875q-0.375 -0.46875 -0.578125 -1.09375q-0.203125 -0.640625 -0.203125 -1.40625q0 -0.828125 0.25 -1.5625q0.25 -0.734375 0.703125 -1.28125q0.453125 -0.5625 1.0625 -0.875q0.609375 -0.328125 1.3125 -0.328125q0.46875 0 0.828125 0.15625q0.375 0.140625 0.84375 0.53125l0 -2.546875q0 -0.40625 -0.109375 -0.578125q-0.109375 -0.1875 -0.53125 -0.1875q-0.125 0 -0.21875 0q-0.09375 0 -0.21875 0.015625l0 -0.25q0.5 -0.125 0.828125 -0.21875q0.328125 -0.09375 0.578125 -0.171875q0.25 -0.078125 0.453125 -0.15625q0.21875 -0.078125 0.484375 -0.15625l0.078125 0.03125zm-2.765625 10.21875q0.296875 0 0.5625 -0.09375q0.265625 -0.109375 0.453125 -0.25q0.203125 -0.15625 0.296875 -0.3125q0.109375 -0.15625 0.109375 -0.28125l0 -3.734375q0 -0.28125 -0.125 -0.5625q-0.125 -0.296875 -0.359375 -0.515625q-0.21875 -0.21875 -0.53125 -0.34375q-0.296875 -0.140625 -0.640625 -0.140625q-0.890625 0 -1.4375 0.796875q-0.53125 0.796875 -0.53125 2.203125q0 0.71875 0.15625 1.3125q0.15625 0.59375 0.4375 1.03125q0.296875 0.421875 0.703125 0.65625q0.40625 0.234375 0.90625 0.234375zm6.859375 -9.4375q0 0.34375 -0.234375 0.578125q-0.21875 0.234375 -0.59375 0.234375q-0.328125 0 -0.5625 -0.234375q-0.234375 -0.234375 -0.234375 -0.578125q0 -0.34375 0.234375 -0.578125q0.25 -0.234375 0.5625 -0.234375q0.359375 0 0.59375 0.234375q0.234375 0.21875 0.234375 0.578125zm-0.078125 2.75l0.0625 0.046875l0 5.765625q0 0.3125 0.015625 0.53125q0.03125 0.21875 0.109375 0.359375q0.09375 0.140625 0.234375 0.21875q0.15625 0.078125 0.390625 0.140625q0.109375 0.015625 0.203125 0.03125q0.109375 0.015625 0.234375 0.03125l0 0.234375l-3.796875 0l0 -0.234375q0.125 0 0.21875 0q0.09375 0 0.171875 -0.015625q0.546875 -0.046875 0.703125 -0.3125q0.171875 -0.265625 0.171875 -0.984375l0 -3.859375q0 -0.46875 -0.109375 -0.671875q-0.109375 -0.21875 -0.5 -0.21875q-0.265625 0 -0.59375 0.078125l0 -0.265625l2.484375 -0.875zm6.182373 0.3125q0.140625 0 0.265625 -0.171875l0.171875 0l0.078125 2.1875l-0.25 0q-0.25 -1.046875 -0.671875 -1.5q-0.421875 -0.453125 -1.09375 -0.453125q-0.546875 0 -0.890625 0.296875q-0.328125 0.296875 -0.328125 0.765625q0 0.421875 0.203125 0.703125q0.203125 0.265625 0.609375 0.484375l1.859375 1.109375q1.078125 0.65625 1.078125 1.703125q0 0.453125 -0.1875 0.84375q-0.171875 0.375 -0.484375 0.65625q-0.3125 0.265625 -0.75 0.421875q-0.421875 0.15625 -0.90625 0.15625q-0.1875 0 -0.453125 -0.046875q-0.265625 -0.046875 -0.53125 -0.09375q-0.265625 -0.046875 -0.5 -0.09375q-0.234375 -0.046875 -0.34375 -0.046875q-0.09375 0 -0.1875 0.03125q-0.09375 0.015625 -0.171875 0.15625l-0.21875 0l0 -2.5l0.265625 0l0.078125 0.34375q0.109375 0.5 0.25 0.796875q0.296875 0.59375 0.734375 0.859375q0.453125 0.25 0.96875 0.25q0.609375 0 0.96875 -0.3125q0.359375 -0.3125 0.359375 -0.84375q0 -0.40625 -0.234375 -0.6875q-0.21875 -0.28125 -0.78125 -0.609375q-0.609375 -0.34375 -1.15625 -0.65625q-0.53125 -0.328125 -0.90625 -0.71875q-0.265625 -0.28125 -0.421875 -0.609375q-0.140625 -0.328125 -0.140625 -0.75q0 -0.4375 0.171875 -0.796875q0.171875 -0.359375 0.453125 -0.625q0.296875 -0.265625 0.703125 -0.40625q0.40625 -0.15625 0.890625 -0.15625q0.546875 0 0.9375 0.15625q0.390625 0.15625 0.5625 0.15625zm4.16156 -2.21875l0 2.0625l1.59375 0l0 0.515625l-1.59375 0l0 4.890625q0 0.546875 0.1875 0.828125q0.1875 0.28125 0.640625 0.28125q0.421875 0 0.953125 -0.546875l0.234375 0.15625q-0.796875 1.234375 -1.859375 1.234375q-0.21875 0 -0.59375 -0.109375q-0.375 -0.09375 -0.59375 -0.421875q-0.078125 -0.109375 -0.140625 -0.21875q-0.046875 -0.109375 -0.09375 -0.265625q-0.03125 -0.171875 -0.0625 -0.40625q-0.015625 -0.25 -0.015625 -0.671875l0 -4.75l-0.921875 0l0 -0.203125q0.734375 -0.53125 1.25 -1.109375q0.515625 -0.59375 0.828125 -1.265625l0.1875 0zm4.541748 1.9375l0 1.421875l0.03125 0q0.375 -0.59375 0.84375 -1.015625q0.46875 -0.4375 1.0625 -0.4375q0.390625 0 0.625 0.234375q0.234375 0.234375 0.234375 0.609375q0 0.34375 -0.171875 0.53125q-0.15625 0.1875 -0.453125 0.1875q-0.171875 0 -0.328125 -0.078125q-0.140625 -0.09375 -0.265625 -0.1875q-0.125 -0.109375 -0.25 -0.203125q-0.109375 -0.09375 -0.234375 -0.09375q-0.171875 0 -0.359375 0.140625q-0.1875 0.140625 -0.359375 0.34375q-0.15625 0.1875 -0.265625 0.421875q-0.109375 0.21875 -0.109375 0.390625l0 3.671875q0 0.265625 0.03125 0.484375q0.046875 0.21875 0.171875 0.359375q0.125 0.140625 0.359375 0.234375q0.234375 0.078125 0.609375 0.078125l0.1875 0l0 0.234375l-3.84375 0l0 -0.234375q0.03125 0 0.0625 0q0.03125 -0.015625 0.0625 -0.015625q0.296875 -0.046875 0.484375 -0.109375q0.203125 -0.078125 0.3125 -0.1875q0.125 -0.109375 0.171875 -0.28125q0.046875 -0.1875 0.046875 -0.453125l0 -4.125q0 -0.4375 -0.125 -0.65625q-0.109375 -0.234375 -0.4375 -0.234375q-0.109375 0 -0.265625 0.015625q-0.140625 0.015625 -0.28125 0.046875l0 -0.265625q0.578125 -0.1875 1.203125 -0.390625q0.640625 -0.21875 1.171875 -0.46875l0.078125 0.03125zm5.640503 -2.78125q0 0.34375 -0.234375 0.578125q-0.21875 0.234375 -0.59375 0.234375q-0.328125 0 -0.5625 -0.234375q-0.234375 -0.234375 -0.234375 -0.578125q0 -0.34375 0.234375 -0.578125q0.25 -0.234375 0.5625 -0.234375q0.359375 0 0.59375 0.234375q0.234375 0.21875 0.234375 0.578125zm-0.078125 2.75l0.0625 0.046875l0 5.765625q0 0.3125 0.015625 0.53125q0.03125 0.21875 0.109375 0.359375q0.09375 0.140625 0.234375 0.21875q0.15625 0.078125 0.390625 0.140625q0.109375 0.015625 0.203125 0.03125q0.109375 0.015625 0.234375 0.03125l0 0.234375l-3.796875 0l0 -0.234375q0.125 0 0.21875 0q0.09375 0 0.171875 -0.015625q0.546875 -0.046875 0.703125 -0.3125q0.171875 -0.265625 0.171875 -0.984375l0 -3.859375q0 -0.46875 -0.109375 -0.671875q-0.109375 -0.21875 -0.5 -0.21875q-0.265625 0 -0.59375 0.078125l0 -0.265625l2.484375 -0.875zm4.026123 -3.5625l0.078125 0.03125l0 4.828125l0.03125 0q0.09375 -0.25 0.3125 -0.484375q0.21875 -0.234375 0.5 -0.421875q0.296875 -0.1875 0.640625 -0.28125q0.359375 -0.109375 0.734375 -0.109375q0.625 0 1.140625 0.28125q0.53125 0.28125 0.890625 0.75q0.375 0.46875 0.578125 1.109375q0.203125 0.625 0.203125 1.34375q0 0.84375 -0.296875 1.59375q-0.28125 0.734375 -0.796875 1.28125q-0.5 0.53125 -1.1875 0.84375q-0.6875 0.3125 -1.5 0.3125q-0.4375 0 -0.890625 -0.09375q-0.453125 -0.078125 -0.84375 -0.21875q-0.375 -0.140625 -0.625 -0.3125q-0.234375 -0.1875 -0.234375 -0.375l0 -8.390625q0 -0.421875 -0.125 -0.578125q-0.125 -0.171875 -0.484375 -0.171875q-0.1875 0 -0.3125 0q-0.125 0 -0.140625 0.015625l0 -0.25q0.125 -0.03125 0.34375 -0.09375q0.21875 -0.0625 0.640625 -0.1875l1.34375 -0.421875zm0.078125 9.8125q0 0.296875 0.453125 0.53125q0.453125 0.21875 1.125 0.21875q0.984375 0 1.515625 -0.734375q0.53125 -0.75 0.53125 -2.109375q0 -1.40625 -0.546875 -2.28125q-0.546875 -0.875 -1.5 -0.875q-0.3125 0 -0.609375 0.109375q-0.28125 0.109375 -0.5 0.265625q-0.21875 0.15625 -0.34375 0.375q-0.125 0.21875 -0.125 0.421875l0 4.078125zm7.727295 -6.09375l0 5.25q0 0.484375 0.328125 0.84375q0.34375 0.34375 0.875 0.34375q0.28125 0 0.609375 -0.109375q0.34375 -0.109375 0.609375 -0.328125q0.203125 -0.15625 0.3125 -0.328125q0.109375 -0.171875 0.109375 -0.578125l0 -3.859375q0 -0.515625 -0.203125 -0.734375q-0.1875 -0.21875 -0.765625 -0.21875l-0.21875 0l0 -0.28125l2.53125 0l0 5.546875q0 0.40625 0.109375 0.609375q0.109375 0.1875 0.5 0.234375q0.078125 0.015625 0.171875 0.015625q0.09375 0 0.203125 0l0 0.21875q-0.421875 0.125 -0.671875 0.203125q-0.234375 0.078125 -0.4375 0.15625q-0.1875 0.0625 -0.4375 0.15625q-0.234375 0.078125 -0.671875 0.203125l-0.03125 -0.03125l0 -1.328125q-0.25 0.265625 -0.484375 0.5q-0.234375 0.234375 -0.46875 0.421875q-0.296875 0.21875 -0.65625 0.328125q-0.359375 0.125 -0.75 0.125q-0.890625 0 -1.40625 -0.5625q-0.5 -0.578125 -0.5 -1.46875l0 -4.125q0 -0.421875 -0.140625 -0.640625q-0.140625 -0.21875 -0.5625 -0.296875q-0.171875 -0.03125 -0.296875 -0.03125l0 -0.234375l2.34375 0zm7.984375 -2.0625l0 2.0625l1.59375 0l0 0.515625l-1.59375 0l0 4.890625q0 0.546875 0.1875 0.828125q0.1875 0.28125 0.640625 0.28125q0.421875 0 0.953125 -0.546875l0.234375 0.15625q-0.796875 1.234375 -1.859375 1.234375q-0.21875 0 -0.59375 -0.109375q-0.375 -0.09375 -0.59375 -0.421875q-0.078125 -0.109375 -0.140625 -0.21875q-0.046875 -0.109375 -0.09375 -0.265625q-0.03125 -0.171875 -0.0625 -0.40625q-0.015625 -0.25 -0.015625 -0.671875l0 -4.75l-0.921875 0l0 -0.203125q0.734375 -0.53125 1.25 -1.109375q0.515625 -0.59375 0.828125 -1.265625l0.1875 0zm4.854248 -0.84375q0 0.34375 -0.234375 0.578125q-0.21875 0.234375 -0.59375 0.234375q-0.328125 0 -0.5625 -0.234375q-0.234375 -0.234375 -0.234375 -0.578125q0 -0.34375 0.234375 -0.578125q0.25 -0.234375 0.5625 -0.234375q0.359375 0 0.59375 0.234375q0.234375 0.21875 0.234375 0.578125zm-0.078125 2.75l0.0625 0.046875l0 5.765625q0 0.3125 0.015625 0.53125q0.03125 0.21875 0.109375 0.359375q0.09375 0.140625 0.234375 0.21875q0.15625 0.078125 0.390625 0.140625q0.109375 0.015625 0.203125 0.03125q0.109375 0.015625 0.234375 0.03125l0 0.234375l-3.796875 0l0 -0.234375q0.125 0 0.21875 0q0.09375 0 0.171875 -0.015625q0.546875 -0.046875 0.703125 -0.3125q0.171875 -0.265625 0.171875 -0.984375l0 -3.859375q0 -0.46875 -0.109375 -0.671875q-0.109375 -0.21875 -0.5 -0.21875q-0.265625 0 -0.59375 0.078125l0 -0.265625l2.484375 -0.875zm9.166809 3.609375q0 0.828125 -0.28125 1.546875q-0.265625 0.703125 -0.75 1.234375q-0.46875 0.515625 -1.125 0.828125q-0.640625 0.296875 -1.390625 0.296875q-0.75 0 -1.40625 -0.28125q-0.640625 -0.296875 -1.109375 -0.796875q-0.46875 -0.515625 -0.734375 -1.203125q-0.25 -0.6875 -0.25 -1.5q0 -0.828125 0.25 -1.515625q0.265625 -0.6875 0.734375 -1.171875q0.46875 -0.484375 1.09375 -0.765625q0.640625 -0.28125 1.390625 -0.28125q0.796875 0 1.453125 0.28125q0.671875 0.265625 1.140625 0.75q0.484375 0.46875 0.734375 1.140625q0.25 0.65625 0.25 1.4375zm-3.3125 3.46875q0.890625 0 1.375 -0.765625q0.5 -0.78125 0.5 -2.171875q0 -0.78125 -0.171875 -1.453125q-0.15625 -0.6875 -0.453125 -1.1875q-0.296875 -0.5 -0.734375 -0.765625q-0.421875 -0.28125 -0.9375 -0.28125q-0.828125 0 -1.359375 0.671875q-0.515625 0.65625 -0.515625 1.890625q0 0.75 0.140625 1.46875q0.15625 0.71875 0.4375 1.3125q0.25 0.546875 0.65625 0.921875q0.421875 0.359375 1.0625 0.359375zm6.265625 -7.078125l0.109375 0.03125l0 1.265625q0.703125 -0.703125 1.21875 -1.0q0.515625 -0.296875 1.09375 -0.296875q0.921875 0 1.40625 0.640625q0.484375 0.640625 0.484375 1.6875l0 3.796875q0 0.328125 0.0625 0.515625q0.078125 0.171875 0.1875 0.265625q0.109375 0.078125 0.234375 0.125q0.140625 0.03125 0.28125 0.0625q0.0625 0.015625 0.109375 0.03125q0.0625 0 0.109375 0l0 0.234375l-3.328125 0l0 -0.234375q0.15625 0 0.28125 -0.03125q0.265625 -0.046875 0.40625 -0.1875q0.15625 -0.140625 0.21875 -0.328125q0.078125 -0.203125 0.078125 -0.453125q0.015625 -0.265625 0.015625 -0.546875l0 -3.203125q0 -0.703125 -0.28125 -1.09375q-0.28125 -0.40625 -0.890625 -0.40625q-0.375 0 -0.75 0.203125q-0.359375 0.203125 -0.890625 0.71875l0 4.515625q0 0.359375 0.1875 0.59375q0.203125 0.21875 0.6875 0.21875l0.1875 0l0 0.234375l-3.40625 0l0 -0.234375l0.265625 -0.046875q0.5 -0.109375 0.609375 -0.375q0.125 -0.265625 0.125 -0.71875l0 -4.09375q0 -0.46875 -0.109375 -0.71875q-0.109375 -0.25 -0.4375 -0.25q-0.21875 0 -0.484375 0.0625l0 -0.265625l0.953125 -0.296875l1.265625 -0.421875z" fill-rule="nonzero"/><path fill="#000000" fill-opacity="0.0" d="m398.00262 1.8346456l341.19684 0l0 38.771656l-341.19684 0z" fill-rule="evenodd"/><path fill="#999999" d="m490.05258 15.913396q0.28125 0 0.46875 -0.140625q0.203125 -0.15625 0.28125 -0.390625l0.359375 0l0.125 3.375001l-0.359375 0l-0.1875 -0.453125q-0.40625 -1.078125 -1.265625 -1.671875q-0.859375 -0.609375 -2.0 -0.609375q-0.890625 0 -1.609375 0.359375q-0.71875 0.34375 -1.25 1.0q-0.515625 0.640625 -0.796875 1.5625q-0.265625 0.90625 -0.265625 2.03125q0 1.109375 0.28125 2.0q0.28125 0.875 0.828125 1.5q0.546875 0.625 1.296875 0.96875q0.765625 0.328125 1.734375 0.328125q0.46875 0 0.875 -0.0625q0.40625 -0.078125 0.6875 -0.203125q0.296875 -0.125 0.453125 -0.296875q0.171875 -0.171875 0.171875 -0.359375l0 -2.6875q0 -0.40625 -0.046875 -0.640625q-0.046875 -0.234375 -0.15625 -0.359375q-0.109375 -0.140625 -0.3125 -0.203125q-0.1875 -0.0625 -0.46875 -0.09375q-0.109375 -0.015625 -0.1875 -0.015625q-0.0625 -0.015625 -0.234375 -0.03125l0 -0.28125l4.078125 0l0 0.28125l-0.1875 0.03125q-0.5625 0.09375 -0.75 0.34375q-0.1875 0.234375 -0.1875 0.796875l0 3.25q0 0.15625 -0.359375 0.328125q-0.25 0.125 -0.578125 0.21875q-0.3125 0.09375 -0.671875 0.203125q-0.3125 0.078125 -0.53125 0.15625q-0.21875 0.078125 -0.46875 0.140625q-0.234375 0.0625 -0.53125 0.09375q-0.28125 0.03125 -0.703125 0.03125q-1.34375 0 -2.4375 -0.375q-1.078125 -0.375 -1.84375 -1.078125q-0.75 -0.703125 -1.171875 -1.703125q-0.40625 -1.0 -0.40625 -2.265625q0 -1.21875 0.390625 -2.234375q0.40625 -1.03125 1.125 -1.78125q0.734375 -0.75 1.75 -1.171876q1.015625 -0.421875 2.25 -0.421875q0.5625 0 0.984375 0.078125q0.4375 0.078125 0.765625 0.1875q0.34375 0.09375 0.59375 0.1875q0.265625 0.078125 0.46875 0.078125zm10.223907 6.531251q0 0.828125 -0.28125 1.546875q-0.265625 0.703125 -0.75 1.234375q-0.46875 0.515625 -1.125 0.828125q-0.640625 0.296875 -1.390625 0.296875q-0.75 0 -1.40625 -0.28125q-0.640625 -0.296875 -1.109375 -0.796875q-0.46875 -0.515625 -0.734375 -1.203125q-0.25 -0.6875 -0.25 -1.5q0 -0.828125 0.25 -1.515625q0.265625 -0.6875 0.734375 -1.171875q0.46875 -0.484375 1.09375 -0.765625q0.640625 -0.28125 1.390625 -0.28125q0.796875 0 1.453125 0.28125q0.671875 0.265625 1.140625 0.75q0.484375 0.46875 0.734375 1.140625q0.25 0.65625 0.25 1.4375zm-3.3125 3.46875q0.890625 0 1.375 -0.765625q0.5 -0.78125 0.5 -2.171875q0 -0.78125 -0.171875 -1.453125q-0.15625 -0.6875 -0.453125 -1.1875q-0.296875 -0.5 -0.734375 -0.765625q-0.421875 -0.28125 -0.9375 -0.28125q-0.828125 0 -1.359375 0.671875q-0.515625 0.65625 -0.515625 1.890625q0 0.75 0.140625 1.46875q0.15625 0.71875 0.4375 1.3125q0.25 0.546875 0.65625 0.921875q0.421875 0.359375 1.0625 0.359375zm9.6875 -1.328125q0 0.4375 0.09375 0.65625q0.09375 0.203125 0.390625 0.203125q0.171875 0 0.328125 -0.0625q0.15625 -0.0625 0.375 -0.25l0 0.421875q-0.4375 0.46875 -0.75 0.640625q-0.296875 0.15625 -0.703125 0.15625q-0.46875 0 -0.71875 -0.265625q-0.234375 -0.28125 -0.296875 -0.90625q-0.71875 0.625 -1.265625 0.90625q-0.546875 0.265625 -1.078125 0.265625q-0.734375 0 -1.203125 -0.46875q-0.46875 -0.46875 -0.46875 -1.203125q0 -0.828125 0.5 -1.359375q0.515625 -0.546875 1.46875 -0.953125l2.03125 -0.84375l0 -1.03125q0 -0.5625 -0.3125 -0.90625q-0.296875 -0.359375 -0.90625 -0.359375q-0.5 0 -0.828125 0.234375q-0.328125 0.21875 -0.328125 0.546875q0 0.203125 0.03125 0.375q0.046875 0.15625 0.046875 0.21875q0 0.3125 -0.21875 0.515625q-0.21875 0.203125 -0.5 0.203125q-0.28125 0 -0.484375 -0.203125q-0.203125 -0.21875 -0.203125 -0.5q0 -0.375 0.203125 -0.703125q0.21875 -0.328125 0.578125 -0.5625q0.359375 -0.25 0.828125 -0.375q0.484375 -0.140625 1.03125 -0.140625q0.296875 0 0.703125 0.0625q0.40625 0.046875 0.765625 0.28125q0.375 0.21875 0.625 0.671875q0.265625 0.453125 0.265625 1.265625l0 3.46875zm-2.875 0.84375q0.203125 0 0.5 -0.078125q0.296875 -0.078125 0.609375 -0.265625q0.21875 -0.125 0.34375 -0.265625q0.125 -0.140625 0.125 -0.546875l0 -2.359375l-0.828125 0.3125q-0.828125 0.328125 -1.296875 0.796875q-0.46875 0.46875 -0.46875 1.140625q0 0.546875 0.28125 0.90625q0.296875 0.359375 0.734375 0.359375zm6.9946594 -10.125001l0 9.593751q0 0.53125 0.171875 0.78125q0.1875 0.25 0.75 0.28125l0.28125 0l0 0.234375l-3.765625 0l0 -0.234375l0.25 -0.03125q0.59375 -0.09375 0.78125 -0.3125q0.1875 -0.21875 0.1875 -0.765625l0 -7.640625q0 -0.21875 -0.015625 -0.40625q0 -0.1875 -0.0625 -0.3125q-0.0625 -0.140625 -0.203125 -0.21875q-0.125 -0.078125 -0.390625 -0.078125q-0.109375 0 -0.28125 0.015625q-0.171875 0 -0.3125 0.015625l0 -0.25000095q0.984375 -0.25 1.546875 -0.40625q0.578125 -0.171875 0.984375 -0.296875l0.078125 0.03125zm4.6199036 4.453126q0 0.359375 -0.265625 0.625q-0.265625 0.25 -0.640625 0.25q-0.359375 0 -0.625 -0.25q-0.25 -0.25 -0.25 -0.625q0 -0.359375 0.25 -0.625q0.265625 -0.28125 0.625 -0.28125q0.375 0 0.640625 0.28125q0.265625 0.265625 0.265625 0.625zm0 5.75q0 0.34375 -0.265625 0.609375q-0.265625 0.25 -0.640625 0.25q-0.359375 0 -0.625 -0.234375q-0.25 -0.25 -0.25 -0.625q0 -0.375 0.25 -0.640625q0.265625 -0.265625 0.625 -0.265625q0.375 0 0.640625 0.265625q0.265625 0.265625 0.265625 0.640625zm9.901123 -6.359375q0.140625 0 0.265625 -0.171875l0.171875 0l0.078125 2.1875l-0.25 0q-0.25 -1.046875 -0.671875 -1.5q-0.421875 -0.453125 -1.09375 -0.453125q-0.546875 0 -0.890625 0.296875q-0.328125 0.296875 -0.328125 0.765625q0 0.421875 0.203125 0.703125q0.203125 0.265625 0.609375 0.484375l1.859375 1.109375q1.078125 0.65625 1.078125 1.703125q0 0.453125 -0.1875 0.84375q-0.171875 0.375 -0.484375 0.65625q-0.3125 0.265625 -0.75 0.421875q-0.421875 0.15625 -0.90625 0.15625q-0.1875 0 -0.453125 -0.046875q-0.265625 -0.046875 -0.53125 -0.09375q-0.265625 -0.046875 -0.5 -0.09375q-0.234375 -0.046875 -0.34375 -0.046875q-0.09375 0 -0.1875 0.03125q-0.09375 0.015625 -0.171875 0.15625l-0.21875 0l0 -2.5l0.265625 0l0.078125 0.34375q0.109375 0.5 0.25 0.796875q0.296875 0.59375 0.734375 0.859375q0.453125 0.25 0.96875 0.25q0.609375 0 0.96875 -0.3125q0.359375 -0.3125 0.359375 -0.84375q0 -0.40625 -0.234375 -0.6875q-0.21875 -0.28125 -0.78125 -0.609375q-0.609375 -0.34375 -1.15625 -0.65625q-0.53125 -0.328125 -0.90625 -0.71875q-0.265625 -0.28125 -0.421875 -0.609375q-0.140625 -0.328125 -0.140625 -0.75q0 -0.4375 0.171875 -0.796875q0.171875 -0.359375 0.453125 -0.625q0.296875 -0.265625 0.703125 -0.40625q0.40625 -0.15625 0.890625 -0.15625q0.546875 0 0.9375 0.15625q0.390625 0.15625 0.5625 0.15625zm9.208374 3.296875q0 0.828125 -0.28125 1.546875q-0.265625 0.703125 -0.75 1.234375q-0.46875 0.515625 -1.125 0.828125q-0.640625 0.296875 -1.390625 0.296875q-0.75 0 -1.40625 -0.28125q-0.640625 -0.296875 -1.109375 -0.796875q-0.46875 -0.515625 -0.734375 -1.203125q-0.25 -0.6875 -0.25 -1.5q0 -0.828125 0.25 -1.515625q0.265625 -0.6875 0.734375 -1.171875q0.46875 -0.484375 1.09375 -0.765625q0.640625 -0.28125 1.390625 -0.28125q0.796875 0 1.453125 0.28125q0.671875 0.265625 1.140625 0.75q0.484375 0.46875 0.734375 1.140625q0.25 0.65625 0.25 1.4375zm-3.3125 3.46875q0.890625 0 1.375 -0.765625q0.5 -0.78125 0.5 -2.171875q0 -0.78125 -0.171875 -1.453125q-0.15625 -0.6875 -0.453125 -1.1875q-0.296875 -0.5 -0.734375 -0.765625q-0.421875 -0.28125 -0.9375 -0.28125q-0.828125 0 -1.359375 0.671875q-0.515625 0.65625 -0.515625 1.890625q0 0.75 0.140625 1.46875q0.15625 0.71875 0.4375 1.3125q0.25 0.546875 0.65625 0.921875q0.421875 0.359375 1.0625 0.359375zm6.703186 -10.609376l0 9.593751q0 0.53125 0.171875 0.78125q0.1875 0.25 0.75 0.28125l0.28125 0l0 0.234375l-3.765625 0l0 -0.234375l0.25 -0.03125q0.59375 -0.09375 0.78125 -0.3125q0.1875 -0.21875 0.1875 -0.765625l0 -7.640625q0 -0.21875 -0.015625 -0.40625q0 -0.1875 -0.0625 -0.3125q-0.0625 -0.140625 -0.203125 -0.21875q-0.125 -0.078125 -0.390625 -0.078125q-0.109375 0 -0.28125 0.015625q-0.171875 0 -0.3125 0.015625l0 -0.25000095q0.984375 -0.25 1.546875 -0.40625q0.578125 -0.171875 0.984375 -0.296875l0.078125 0.03125zm4.979248 3.687501l0 0.25q-0.03125 0 -0.0625 0.015625q-0.015625 0 -0.046875 0q-0.359375 0.046875 -0.5 0.140625q-0.125 0.078125 -0.125 0.296875q0 0.109375 0.046875 0.3125q0.0625 0.203125 0.1875 0.53125l1.5625 3.828125l1.328125 -3.46875q0.203125 -0.53125 0.265625 -0.765625q0.0625 -0.25 0.0625 -0.390625q0 -0.390625 -0.625 -0.484375q-0.03125 0 -0.0625 0q-0.03125 -0.015625 -0.0625 -0.015625l0 -0.25l2.21875 0l0 0.25q-0.03125 0 -0.15625 0.03125q-0.21875 0.03125 -0.34375 0.171875q-0.109375 0.140625 -0.25 0.34375q-0.046875 0.109375 -0.109375 0.25q-0.0625 0.125 -0.171875 0.40625q-0.09375 0.265625 -0.28125 0.703125q-0.171875 0.4375 -0.453125 1.140625q-0.28125 0.703125 -0.6875 1.71875q-0.390625 1.015625 -0.953125 2.40625l-0.234375 0q-1.109375 -2.6875 -1.828125 -4.390625q-0.703125 -1.71875 -1.0 -2.25q-0.109375 -0.1875 -0.234375 -0.296875q-0.125 -0.109375 -0.375 -0.1875q-0.03125 -0.015625 -0.125 -0.03125q-0.078125 -0.015625 -0.125 -0.015625l0 -0.25l3.140625 0zm5.8065186 2.765625q0.078125 1.125 0.34375 1.8125q0.28125 0.671875 0.65625 1.046875q0.375 0.375 0.796875 0.515625q0.421875 0.125 0.765625 0.125q0.75 0 1.3125 -0.390625q0.578125 -0.390625 1.15625 -1.296875l0.25 0.109375q-0.515625 1.3125 -1.375 2.0q-0.859375 0.671875 -2.015625 0.671875q-1.40625 0 -2.203125 -0.96875q-0.78125 -0.96875 -0.78125 -2.609375q0 -0.875 0.234375 -1.59375q0.25 -0.734375 0.6875 -1.25q0.453125 -0.515625 1.046875 -0.796875q0.609375 -0.296875 1.359375 -0.296875q0.421875 0 0.84375 0.125q0.4375 0.109375 0.796875 0.375q0.359375 0.265625 0.609375 0.6875q0.265625 0.40625 0.390625 1.0q0.03125 0.15625 0.0625 0.375q0.03125 0.21875 0.046875 0.359375l-4.984375 0zm3.34375 -0.5q-0.09375 -0.921875 -0.4375 -1.375q-0.34375 -0.46875 -1.109375 -0.46875q-0.34375 0 -0.609375 0.078125q-0.265625 0.078125 -0.484375 0.296875q-0.21875 0.203125 -0.390625 0.5625q-0.15625 0.359375 -0.265625 0.90625l3.296875 0zm13.041504 -3.015625q0 0.90625 -0.5 1.859375q-0.484375 0.953125 -1.5 2.015625l-2.734375 2.859375l3.890625 0q0.28125 0 0.46875 -0.0625q0.203125 -0.0625 0.359375 -0.1875q0.15625 -0.125 0.296875 -0.328125q0.15625 -0.203125 0.328125 -0.46875l0.203125 0.078125l-0.875 2.1875l-6.234375 0l0 -0.1875q1.09375 -1.171875 1.75 -1.875q0.671875 -0.703125 1.046875 -1.109375q0.375 -0.40625 0.53125 -0.59375q0.171875 -0.1875 0.265625 -0.328125q0.53125 -0.765625 0.921875 -1.5625q0.40625 -0.796875 0.40625 -1.65625q0 -1.0625 -0.609375 -1.6875q-0.609375 -0.625 -1.625 -0.625q-0.90625 0 -1.40625 0.5q-0.5 0.484375 -0.9375 1.578125l-0.328125 -0.078125q0.109375 -0.46875 0.234375 -0.859375q0.125 -0.40625 0.328125 -0.734375q0.46875 -0.8125 1.1875 -1.203126q0.71875 -0.390625 1.59375 -0.390625q0.640625 0 1.171875 0.21875q0.53125 0.21875 0.921875 0.60937595q0.40625 0.390625 0.625 0.90625q0.21875 0.515625 0.21875 1.125zm6.437561 -2.859376l0.703125 0l0 7.109376l1.625 0l0 1.03125l-1.625 0l0 2.671875l-1.234375 0l0 -2.671875l-4.5 0l0 -1.03125l5.03125 -7.109376zm-4.390625 7.109376l3.84375 0l0 -5.4375l-0.03125 0l-3.8125 5.4375zm13.71875 -3.625l0 1.171875l0.03125 0.03125q0.953125 -1.234375 2.265625 -1.234375q0.59375 0 1.09375 0.265625q0.5 0.265625 0.84375 0.71875q0.359375 0.453125 0.546875 1.078125q0.1875 0.625 0.1875 1.34375q0 0.859375 -0.25 1.625q-0.25 0.75 -0.71875 1.296875q-0.453125 0.546875 -1.0625 0.875q-0.609375 0.3125 -1.328125 0.3125q-0.5 0 -0.84375 -0.140625q-0.34375 -0.140625 -0.765625 -0.546875l0 2.578125q0 0.375 0.046875 0.578125q0.0625 0.21875 0.203125 0.34375q0.140625 0.140625 0.375 0.171875q0.234375 0.046875 0.609375 0.046875l0.171875 0l0 0.28125l-3.875 0l0 -0.265625l0.21875 -0.03125q0.546875 -0.09375 0.71875 -0.296875q0.1875 -0.1875 0.1875 -0.71875l0 -7.6875q0 -0.515625 -0.171875 -0.640625q-0.15625 -0.125 -0.375 -0.125l-0.515625 0.015625l0 -0.265625q0.609375 -0.1875 1.1875 -0.40625q0.578125 -0.234375 1.125 -0.40625l0.09375 0.03125zm0 5.9375q0 0.140625 0.125 0.328125q0.125 0.1875 0.34375 0.34375q0.234375 0.140625 0.53125 0.25q0.296875 0.109375 0.625 0.109375q0.921875 0 1.4375 -0.796875q0.53125 -0.8125 0.53125 -2.203125q0 -1.390625 -0.53125 -2.21875q-0.53125 -0.828125 -1.46875 -0.828125q-0.28125 0 -0.578125 0.109375q-0.28125 0.109375 -0.515625 0.265625q-0.234375 0.15625 -0.375 0.34375q-0.125 0.171875 -0.125 0.328125l0 3.96875zm12.96875 -2.359375q0 0.828125 -0.28125 1.546875q-0.265625 0.703125 -0.75 1.234375q-0.46875 0.515625 -1.125 0.828125q-0.640625 0.296875 -1.390625 0.296875q-0.75 0 -1.40625 -0.28125q-0.640625 -0.296875 -1.109375 -0.796875q-0.46875 -0.515625 -0.734375 -1.203125q-0.25 -0.6875 -0.25 -1.5q0 -0.828125 0.25 -1.515625q0.265625 -0.6875 0.734375 -1.171875q0.46875 -0.484375 1.09375 -0.765625q0.640625 -0.28125 1.390625 -0.28125q0.796875 0 1.453125 0.28125q0.671875 0.265625 1.140625 0.75q0.484375 0.46875 0.734375 1.140625q0.25 0.65625 0.25 1.4375zm-3.3125 3.46875q0.890625 0 1.375 -0.765625q0.5 -0.78125 0.5 -2.171875q0 -0.78125 -0.171875 -1.453125q-0.15625 -0.6875 -0.453125 -1.1875q-0.296875 -0.5 -0.734375 -0.765625q-0.421875 -0.28125 -0.9375 -0.28125q-0.828125 0 -1.359375 0.671875q-0.515625 0.65625 -0.515625 1.890625q0 0.75 0.140625 1.46875q0.15625 0.71875 0.4375 1.3125q0.25 0.546875 0.65625 0.921875q0.421875 0.359375 1.0625 0.359375zm6.671936 -9.828125q0 0.34375 -0.234375 0.578125q-0.21875 0.234375 -0.59375 0.234375q-0.328125 0 -0.5625 -0.234375q-0.234375 -0.234375 -0.234375 -0.578125q0 -0.34375095 0.234375 -0.57812595q0.25 -0.234375 0.5625 -0.234375q0.359375 0 0.59375 0.234375q0.234375 0.21875 0.234375 0.57812595zm-0.078125 2.75l0.0625 0.046875l0 5.765625q0 0.3125 0.015625 0.53125q0.03125 0.21875 0.109375 0.359375q0.09375 0.140625 0.234375 0.21875q0.15625 0.078125 0.390625 0.140625q0.109375 0.015625 0.203125 0.03125q0.109375 0.015625 0.234375 0.03125l0 0.234375l-3.796875 0l0 -0.234375q0.125 0 0.21875 0q0.09375 0 0.171875 -0.015625q0.546875 -0.046875 0.703125 -0.3125q0.171875 -0.265625 0.171875 -0.984375l0 -3.859375q0 -0.46875 -0.109375 -0.671875q-0.109375 -0.21875 -0.5 -0.21875q-0.265625 0 -0.59375 0.078125l0 -0.265625l2.484375 -0.875zm4.119873 0l0.109375 0.03125l0 1.265625q0.703125 -0.703125 1.21875 -1.0q0.515625 -0.296875 1.09375 -0.296875q0.921875 0 1.40625 0.640625q0.484375 0.640625 0.484375 1.6875l0 3.796875q0 0.328125 0.0625 0.515625q0.078125 0.171875 0.1875 0.265625q0.109375 0.078125 0.234375 0.125q0.140625 0.03125 0.28125 0.0625q0.0625 0.015625 0.109375 0.03125q0.0625 0 0.109375 0l0 0.234375l-3.328125 0l0 -0.234375q0.15625 0 0.28125 -0.03125q0.265625 -0.046875 0.40625 -0.1875q0.15625 -0.140625 0.21875 -0.328125q0.078125 -0.203125 0.078125 -0.453125q0.015625 -0.265625 0.015625 -0.546875l0 -3.203125q0 -0.703125 -0.28125 -1.09375q-0.28125 -0.40625 -0.890625 -0.40625q-0.375 0 -0.75 0.203125q-0.359375 0.203125 -0.890625 0.71875l0 4.515625q0 0.359375 0.1875 0.59375q0.203125 0.21875 0.6875 0.21875l0.1875 0l0 0.234375l-3.40625 0l0 -0.234375l0.265625 -0.046875q0.5 -0.109375 0.609375 -0.375q0.125 -0.265625 0.125 -0.71875l0 -4.09375q0 -0.46875 -0.109375 -0.71875q-0.109375 -0.25 -0.4375 -0.25q-0.21875 0 -0.484375 0.0625l0 -0.265625l0.953125 -0.296875l1.265625 -0.421875zm8.0 -1.90625l0 2.0625l1.59375 0l0 0.515625l-1.59375 0l0 4.890625q0 0.546875 0.1875 0.828125q0.1875 0.28125 0.640625 0.28125q0.421875 0 0.953125 -0.546875l0.234375 0.15625q-0.796875 1.234375 -1.859375 1.234375q-0.21875 0 -0.59375 -0.109375q-0.375 -0.09375 -0.59375 -0.421875q-0.078125 -0.109375 -0.140625 -0.21875q-0.046875 -0.109375 -0.09375 -0.265625q-0.03125 -0.171875 -0.0625 -0.40625q-0.015625 -0.25 -0.015625 -0.671875l0 -4.75l-0.921875 0l0 -0.203125q0.734375 -0.53125 1.25 -1.109375q0.515625 -0.59375 0.828125 -1.265625l0.1875 0zm6.510498 2.21875q0.140625 0 0.265625 -0.171875l0.171875 0l0.078125 2.1875l-0.25 0q-0.25 -1.046875 -0.671875 -1.5q-0.421875 -0.453125 -1.09375 -0.453125q-0.546875 0 -0.890625 0.296875q-0.328125 0.296875 -0.328125 0.765625q0 0.421875 0.203125 0.703125q0.203125 0.265625 0.609375 0.484375l1.859375 1.109375q1.078125 0.65625 1.078125 1.703125q0 0.453125 -0.1875 0.84375q-0.171875 0.375 -0.484375 0.65625q-0.3125 0.265625 -0.75 0.421875q-0.421875 0.15625 -0.90625 0.15625q-0.1875 0 -0.453125 -0.046875q-0.265625 -0.046875 -0.53125 -0.09375q-0.265625 -0.046875 -0.5 -0.09375q-0.234375 -0.046875 -0.34375 -0.046875q-0.09375 0 -0.1875 0.03125q-0.09375 0.015625 -0.171875 0.15625l-0.21875 0l0 -2.5l0.265625 0l0.078125 0.34375q0.109375 0.5 0.25 0.796875q0.296875 0.59375 0.734375 0.859375q0.453125 0.25 0.96875 0.25q0.609375 0 0.96875 -0.3125q0.359375 -0.3125 0.359375 -0.84375q0 -0.40625 -0.234375 -0.6875q-0.21875 -0.28125 -0.78125 -0.609375q-0.609375 -0.34375 -1.15625 -0.65625q-0.53125 -0.328125 -0.90625 -0.71875q-0.265625 -0.28125 -0.421875 -0.609375q-0.140625 -0.328125 -0.140625 -0.75q0 -0.4375 0.171875 -0.796875q0.171875 -0.359375 0.453125 -0.625q0.296875 -0.265625 0.703125 -0.40625q0.40625 -0.15625 0.890625 -0.15625q0.546875 0 0.9375 0.15625q0.390625 0.15625 0.5625 0.15625zm13.208435 0.21875l0 0.625l-1.328125 0q0.203125 0.421875 0.25 0.734375q0.0625 0.3125 0.0625 0.65625q0 0.515625 -0.203125 0.953125q-0.1875 0.4375 -0.53125 0.765625q-0.34375 0.328125 -0.796875 0.515625q-0.453125 0.1875 -0.984375 0.1875q-0.296875 0 -0.5625 -0.03125q-0.25 -0.046875 -0.3125 -0.046875q-0.140625 0 -0.296875 0.125q-0.15625 0.109375 -0.3125 0.265625q-0.15625 0.15625 -0.265625 0.34375q-0.109375 0.171875 -0.109375 0.296875q0 0.171875 0.265625 0.265625q0.28125 0.09375 0.734375 0.125l2.46875 0.140625q0.34375 0.015625 0.65625 0.125q0.328125 0.109375 0.578125 0.328125q0.25 0.203125 0.390625 0.515625q0.15625 0.3125 0.15625 0.734375q0 0.53125 -0.34375 1.015625q-0.34375 0.484375 -0.921875 0.859375q-0.578125 0.375 -1.328125 0.59375q-0.75 0.21875 -1.5625 0.21875q-0.578125 0 -1.09375 -0.125q-0.5 -0.125 -0.875 -0.34375q-0.375 -0.21875 -0.59375 -0.5q-0.203125 -0.28125 -0.203125 -0.59375q0 -0.484375 0.421875 -0.96875q0.421875 -0.46875 1.140625 -0.96875q-0.515625 -0.234375 -0.6875 -0.40625q-0.15625 -0.171875 -0.15625 -0.4375q0 -0.15625 0.03125 -0.28125q0.046875 -0.125 0.1875 -0.296875q0.140625 -0.1875 0.421875 -0.453125q0.296875 -0.28125 0.78125 -0.71875q-0.8125 -0.40625 -1.15625 -0.890625q-0.328125 -0.5 -0.328125 -1.234375q0 -0.5625 0.1875 -1.03125q0.203125 -0.484375 0.5625 -0.828125q0.375 -0.359375 0.890625 -0.5625q0.515625 -0.203125 1.125 -0.203125q0.375 0 0.65625 0.09375q0.296875 0.078125 0.609375 0.171875q0.28125 0.109375 0.53125 0.1875q0.25 0.078125 0.5625 0.078125l1.28125 0zm-3.421875 4.046875q0.53125 0 0.84375 -0.390625q0.328125 -0.40625 0.328125 -1.078125q0 -0.53125 -0.125 -1.015625q-0.109375 -0.484375 -0.328125 -0.84375q-0.21875 -0.375 -0.53125 -0.578125q-0.3125 -0.21875 -0.6875 -0.21875q-0.5 0 -0.828125 0.375q-0.328125 0.375 -0.328125 1.09375q0 1.25 0.4375 1.953125q0.453125 0.703125 1.21875 0.703125zm-1.734375 2.8125q-0.375 0.421875 -0.59375 0.75q-0.203125 0.34375 -0.203125 0.625q0 0.546875 0.640625 0.859375q0.65625 0.3125 1.8125 0.3125q0.609375 0 1.140625 -0.109375q0.53125 -0.109375 0.921875 -0.3125q0.40625 -0.203125 0.625 -0.5q0.21875 -0.28125 0.21875 -0.625q0 -0.375 -0.234375 -0.53125q-0.21875 -0.140625 -0.6875 -0.203125q-0.484375 -0.046875 -0.96875 -0.0625q-0.484375 -0.015625 -0.96875 -0.03125q-0.46875 -0.015625 -0.90625 -0.046875q-0.4375 -0.03125 -0.796875 -0.125zm11.467285 -1.640625q0 0.4375 0.09375 0.65625q0.09375 0.203125 0.390625 0.203125q0.171875 0 0.328125 -0.0625q0.15625 -0.0625 0.375 -0.25l0 0.421875q-0.4375 0.46875 -0.75 0.640625q-0.296875 0.15625 -0.703125 0.15625q-0.46875 0 -0.71875 -0.265625q-0.234375 -0.28125 -0.296875 -0.90625q-0.71875 0.625 -1.265625 0.90625q-0.546875 0.265625 -1.078125 0.265625q-0.734375 0 -1.203125 -0.46875q-0.46875 -0.46875 -0.46875 -1.203125q0 -0.828125 0.5 -1.359375q0.515625 -0.546875 1.46875 -0.953125l2.03125 -0.84375l0 -1.03125q0 -0.5625 -0.3125 -0.90625q-0.296875 -0.359375 -0.90625 -0.359375q-0.5 0 -0.828125 0.234375q-0.328125 0.21875 -0.328125 0.546875q0 0.203125 0.03125 0.375q0.046875 0.15625 0.046875 0.21875q0 0.3125 -0.21875 0.515625q-0.21875 0.203125 -0.5 0.203125q-0.28125 0 -0.484375 -0.203125q-0.203125 -0.21875 -0.203125 -0.5q0 -0.375 0.203125 -0.703125q0.21875 -0.328125 0.578125 -0.5625q0.359375 -0.25 0.828125 -0.375q0.484375 -0.140625 1.03125 -0.140625q0.296875 0 0.703125 0.0625q0.40625 0.046875 0.765625 0.28125q0.375 0.21875 0.625 0.671875q0.265625 0.453125 0.265625 1.265625l0 3.46875zm-2.875 0.84375q0.203125 0 0.5 -0.078125q0.296875 -0.078125 0.609375 -0.265625q0.21875 -0.125 0.34375 -0.265625q0.125 -0.140625 0.125 -0.546875l0 -2.359375l-0.828125 0.3125q-0.828125 0.328125 -1.296875 0.796875q-0.46875 0.46875 -0.46875 1.140625q0 0.546875 0.28125 0.90625q0.296875 0.359375 0.734375 0.359375zm6.744629 -6.5625l0 1.203125q0.4375 -0.34375 0.78125 -0.5625q0.34375 -0.234375 0.625 -0.375q0.296875 -0.15625 0.546875 -0.21875q0.25 -0.078125 0.53125 -0.078125q1.25 0 1.6875 1.34375q1.265625 -1.34375 2.59375 -1.34375q0.96875 0 1.421875 0.734375q0.453125 0.71875 0.453125 2.03125l0 3.421875q0 0.515625 0.21875 0.734375q0.234375 0.203125 0.734375 0.203125l0.15625 0l0 0.234375l-3.515625 0l0 -0.234375q0.046875 -0.015625 0.109375 -0.015625q0.078125 0 0.109375 -0.015625q0.28125 -0.046875 0.453125 -0.125q0.1875 -0.09375 0.265625 -0.203125q0.078125 -0.125 0.09375 -0.3125q0.03125 -0.1875 0.03125 -0.421875l0 -3.515625q0 -0.921875 -0.25 -1.296875q-0.25 -0.390625 -0.953125 -0.390625q-0.5625 0 -0.96875 0.234375q-0.40625 0.234375 -0.765625 0.75l0 4.09375q0 0.625 0.1875 0.921875q0.203125 0.296875 0.796875 0.296875l0.15625 0l0 0.234375l-3.578125 0l0 -0.234375l0.15625 0q0.59375 0 0.75 -0.265625q0.171875 -0.28125 0.171875 -0.828125l0 -3.578125q0 -0.78125 -0.25 -1.203125q-0.25 -0.421875 -0.84375 -0.421875q-1.046875 0 -1.84375 0.953125l0 4.515625q0 0.375 0.171875 0.609375q0.171875 0.21875 0.75 0.21875l0.171875 0l0 0.234375l-3.5625 0l0 -0.234375l0.1875 0q0.515625 0 0.71875 -0.265625q0.21875 -0.265625 0.21875 -0.8125l0 -4.15625q0 -0.46875 -0.09375 -0.71875q-0.09375 -0.25 -0.453125 -0.25q-0.40625 0 -0.53125 0.0625l0 -0.265625q0.578125 -0.125 1.125 -0.328125q0.5625 -0.203125 1.125 -0.390625l0.109375 0.03125zm11.291748 2.890625q0.078125 1.125 0.34375 1.8125q0.28125 0.671875 0.65625 1.046875q0.375 0.375 0.796875 0.515625q0.421875 0.125 0.765625 0.125q0.75 0 1.3125 -0.390625q0.578125 -0.390625 1.15625 -1.296875l0.25 0.109375q-0.515625 1.3125 -1.375 2.0q-0.859375 0.671875 -2.015625 0.671875q-1.40625 0 -2.203125 -0.96875q-0.78125 -0.96875 -0.78125 -2.609375q0 -0.875 0.234375 -1.59375q0.25 -0.734375 0.6875 -1.25q0.453125 -0.515625 1.046875 -0.796875q0.609375 -0.296875 1.359375 -0.296875q0.421875 0 0.84375 0.125q0.4375 0.109375 0.796875 0.375q0.359375 0.265625 0.609375 0.6875q0.265625 0.40625 0.390625 1.0q0.03125 0.15625 0.0625 0.375q0.03125 0.21875 0.046875 0.359375l-4.984375 0zm3.34375 -0.5q-0.09375 -0.921875 -0.4375 -1.375q-0.34375 -0.46875 -1.109375 -0.46875q-0.34375 0 -0.609375 0.078125q-0.265625 0.078125 -0.484375 0.296875q-0.21875 0.203125 -0.390625 0.5625q-0.15625 0.359375 -0.265625 0.90625l3.296875 0z" fill-rule="nonzero"/></g></svg>